<svg xmlns="http://www.w3.org/2000/svg" xmlns:xlink="http://www.w3.org/1999/xlink" viewBox="0 0 1440 570"><defs><style>.cls-1,.cls-36,.cls-37,.cls-38,.cls-39,.cls-4,.cls-40,.cls-41,.cls-42,.cls-44,.cls-45,.cls-47,.cls-49,.cls-5,.cls-56,.cls-57,.cls-6{fill:none;}.cls-2{fill:#86d2db;}.cls-3{clip-path:url(#clip-path);}.cls-4,.cls-5{stroke:#fff;}.cls-36,.cls-37,.cls-38,.cls-4,.cls-40,.cls-41,.cls-42,.cls-45,.cls-47,.cls-5,.cls-57,.cls-6{stroke-miterlimit:10;}.cls-4{stroke-dasharray:11.98 14.97;}.cls-5,.cls-6{stroke-dasharray:12 15;}.cls-6{stroke:#f58a73;}.cls-39,.cls-40,.cls-41,.cls-42,.cls-44,.cls-45,.cls-47,.cls-49,.cls-57,.cls-6{stroke-linecap:round;}.cls-44,.cls-49,.cls-56,.cls-6{stroke-width:3px;}.cls-7{fill:#e2d1bf;}.cls-8{fill:#afa08d;}.cls-9{fill:#a8d48e;}.cls-10{fill:#70bc53;}.cls-11{fill:#8ac97b;}.cls-12{fill:#5bad46;}.cls-13{fill:#5b7f4f;}.cls-14{fill:#f4b66c;}.cls-15{fill:#f7c98b;}.cls-16{fill:#b19f53;}.cls-17{fill:#f2db6d;}.cls-18{fill:#faaa55;}.cls-19{fill:#c98548;}.cls-20{fill:#7ac363;}.cls-21{fill:#754fa0;}.cls-22{fill:#462a66;}.cls-23{fill:#f58a73;}.cls-24{fill:#bf6a5c;}.cls-25{fill:#047c3f;}.cls-26{fill:#88bd6e;}.cls-27{fill:#55a94e;}.cls-28{fill:#72aa42;}.cls-29{fill:#17353a;}.cls-30{fill:#c1dbaf;}.cls-31{fill:#f5f6fb;}.cls-32{fill:#c9d1eb;}.cls-33{fill:#af7764;}.cls-34{fill:#e086a4;}.cls-35{fill:#e2bac6;}.cls-36,.cls-40{stroke:#c9d1eb;}.cls-36,.cls-40,.cls-57{stroke-width:6px;}.cls-37,.cls-41{stroke:#5d5e5e;}.cls-37,.cls-39{stroke-width:8px;}.cls-38,.cls-44,.cls-56{stroke:#f5f6fb;}.cls-39,.cls-49{stroke:#f2db6d;}.cls-39,.cls-44,.cls-49,.cls-56{stroke-linejoin:round;}.cls-42,.cls-45{stroke:#bf6a5c;}.cls-42{stroke-width:2px;}.cls-43{fill:#d46250;}.cls-45{stroke-width:5px;}.cls-46{fill:#b9e4f1;}.cls-47{stroke:#f9f9fa;}.cls-48{fill:#5d5e5e;}.cls-50{fill:#81d2e8;}.cls-51{fill:#8bd5ea;}.cls-52{fill:#6ba5b1;}.cls-53{fill:#62aa5b;}.cls-54{fill:#d35e4a;}.cls-55{fill:#e5aca3;}.cls-57{stroke:#17353a;}.cls-58{fill:#b85349;}.cls-59{fill:#098843;}</style><clipPath id="clip-path"><rect class="cls-1" width="1440" height="570"/></clipPath></defs><title>kilter website header</title><g id="Layer_1" data-name="Layer 1"><rect class="cls-2" width="1440" height="570"/><g class="cls-3"><circle class="cls-4" cx="403.98" cy="-193.85" r="579"/><circle class="cls-4" cx="944.21" cy="589.28" r="579"/><line class="cls-5" x1="946.98" y1="654.06" x2="946.98" y2="-151.94"/><line class="cls-5" x1="-63.02" y1="385.15" x2="1534.98" y2="385.15"/></g><line class="cls-6" x1="1208.65" y1="489.37" x2="1208.65" y2="310.21"/><path class="cls-7" d="M1391.11,517.89h0a11.62,11.62,0,0,0-9.07,10.3l-2.37,26a19,19,0,0,0,22.65,14.46h0A19,19,0,0,0,1416.78,546l-13.1-22.61A11.62,11.62,0,0,0,1391.11,517.89Z"/><path class="cls-8" d="M1403.67,523.42a11.62,11.62,0,0,0-12.56-5.52l-.2.05a11.59,11.59,0,0,1,4.31,4.26l13.1,22.61a19,19,0,0,1-14.46,22.65h0a19.07,19.07,0,0,1-2.51.36,18.91,18.91,0,0,0,11,.84h0A19,19,0,0,0,1416.78,546Z"/><path class="cls-7" d="M1334,516.82h0a11.62,11.62,0,0,0-11.08,8.1l-7.92,24.9a19,19,0,0,0,19,19h0a19,19,0,0,0,19-19l-7.92-24.9A11.62,11.62,0,0,0,1334,516.82Z"/><path class="cls-8" d="M1345.06,524.92a11.62,11.62,0,0,0-11.08-8.1h-.21a11.59,11.59,0,0,1,3.29,5.09l7.92,24.9a19,19,0,0,1-19,19h0a19.07,19.07,0,0,1-2.53-.19,18.91,18.91,0,0,0,10.53,3.19h0a19,19,0,0,0,19-19Z"/><path class="cls-7" d="M1372.49,519.36h0a11.62,11.62,0,0,0-13,4.38l-15.06,21.35a19,19,0,0,0,12.38,23.85h0a19,19,0,0,0,23.85-12.38l0-26.13A11.62,11.62,0,0,0,1372.49,519.36Z"/><path class="cls-8" d="M1380.61,530.43a11.62,11.62,0,0,0-8.12-11.06l-.2-.05a11.59,11.59,0,0,1,1.6,5.85l0,26.13a19,19,0,0,1-23.85,12.38h0a19.07,19.07,0,0,1-2.35-.94,18.91,18.91,0,0,0,9.08,6.21h0a19,19,0,0,0,23.85-12.38Z"/><path class="cls-6" d="M823.45,406.48V351.1a46.61,46.61,0,0,1,46.61-46.61H983"/><path class="cls-9" d="M1251.52,459.62h0c2.38-4.71-.17-10.76-5.7-13.52l-2.11-1.05.57-1.12c1.69-3.34-.12-7.65-4-9.61h0c-3.92-2-8.47-.84-10.16,2.51l-.57,1.12h0c-5.23-2.61-11.3-1.12-13.55,3.34l-.23.45-6.58-3.29c-3.05-1.52-6.59-.65-7.9,1.95h0c-1.31,2.6.1,5.95,3.15,7.47L1260.71,476c3.05,1.52,6.59.65,7.9-1.95h0c1.31-2.6-.1-5.95-3.15-7.47Z"/><path class="cls-9" d="M1216.73,473.7h0c2.38-4.71-.17-10.76-5.7-13.52l-2.11-1.05.57-1.12c1.69-3.34-.12-7.65-4-9.61h0c-3.92-2-8.47-.84-10.16,2.51l-.57,1.12h0c-5.23-2.61-11.3-1.12-13.55,3.34l-.23.45-6.58-3.29c-3.05-1.52-6.59-.65-7.9,1.95h0c-1.31,2.6.1,5.95,3.15,7.47l56.31,28.13c3.05,1.52,6.59.65,7.9-1.95h0c1.31-2.6-.1-5.95-3.15-7.47Z"/><path class="cls-10" d="M1204.85,468.5h0c2.38-4.71-.17-10.76-5.7-13.52l-2.11-1.05.57-1.12c1.69-3.34-.12-7.65-4-9.61h0c-3.92-2-8.47-.84-10.16,2.51l-.57,1.12h0c-5.23-2.61-11.3-1.12-13.55,3.34l-.23.45-6.58-3.29c-3.05-1.52-6.59-.65-7.9,1.95h0c-1.31,2.6.1,5.95,3.15,7.47L1214,484.89c3.05,1.52,6.59.65,7.9-1.95h0c1.31-2.6-.1-5.95-3.15-7.47Z"/><path class="cls-11" d="M1260.16,475.73h0c2.38-4.71-.17-10.76-5.7-13.52l-2.11-1.05.57-1.12c1.69-3.34-.12-7.65-4-9.61h0c-3.92-2-8.47-.84-10.16,2.51l-.57,1.12h0c-5.23-2.61-11.3-1.12-13.55,3.34l-.23.45-6.58-3.29c-3.05-1.52-6.59-.65-7.9,1.95h0c-1.31,2.6.1,5.95,3.15,7.47l56.31,28.13c3.05,1.52,6.59.65,7.9-1.95h0c1.31-2.6-.1-5.95-3.15-7.47Z"/><path class="cls-11" d="M1246.58,488.8h0c2.38-4.71-.17-10.76-5.7-13.52l-2.11-1.05.57-1.12c1.69-3.34-.12-7.65-4-9.61h0c-3.92-2-8.47-.84-10.16,2.51l-.57,1.12h0c-5.23-2.61-11.3-1.12-13.55,3.34l-.23.45-6.58-3.29c-3.05-1.52-6.59-.65-7.9,1.95h0c-1.31,2.6.1,5.95,3.15,7.47l56.31,28.13c3.05,1.52,6.59.65,7.9-1.95h0c1.31-2.6-.1-5.95-3.15-7.47Z"/><path class="cls-10" d="M1229,460.18h0c2.38-4.71-.17-10.76-5.7-13.52l-2.11-1.05.57-1.12c1.69-3.34-.12-7.65-4-9.61h0c-3.92-2-8.47-.84-10.16,2.51l-.57,1.12h0c-5.23-2.61-11.3-1.12-13.55,3.34l-.23.45-6.58-3.29c-3.05-1.52-6.59-.65-7.9,1.95h0c-1.31,2.6.1,5.95,3.15,7.47l56.31,28.13c3.05,1.52,6.59.65,7.9-1.95h0c1.31-2.6-.1-5.95-3.15-7.47Z"/><path class="cls-10" d="M1271.37,501.73h0c2.38-4.71-.17-10.76-5.7-13.52l-2.11-1.05.57-1.12c1.69-3.34-.12-7.65-4-9.61h0c-3.92-2-8.47-.84-10.16,2.51l-.57,1.12h0c-5.23-2.61-11.3-1.12-13.55,3.34l-.23.45-6.58-3.29c-3.05-1.52-6.59-.65-7.9,1.95h0c-1.31,2.6.1,5.95,3.15,7.47l56.31,28.13c3.05,1.52,6.59.65,7.9-1.95h0c1.31-2.6-.1-5.95-3.15-7.47Z"/><path class="cls-9" d="M1217.14,528.86h0c-2.39,4.7-8.8,6.27-14.32,3.49l-2.1-1.06-.57,1.12c-1.7,3.34-6.25,4.45-10.17,2.48h0c-3.92-2-5.72-6.27-4-9.61l.57-1.12h0c-5.23-2.62-7.63-8.36-5.36-12.82l.23-.45-6.57-3.3c-3-1.53-4.45-4.88-3.13-7.48h0c1.32-2.6,4.86-3.46,7.91-1.93l56.25,28.25c3,1.53,4.45,4.88,3.13,7.48h0c-1.32,2.6-4.86,3.46-7.91,1.93Z"/><path class="cls-9" d="M1207.82,492.68h0c-2.39,4.7-8.8,6.27-14.32,3.49l-2.1-1.06-.57,1.12c-1.7,3.34-6.25,4.45-10.17,2.48h0c-3.92-2-5.72-6.27-4-9.61l.57-1.12h0c-5.23-2.62-7.63-8.36-5.36-12.82l.23-.45-6.57-3.3c-3-1.53-4.45-4.88-3.13-7.48h0c1.32-2.6,4.86-3.46,7.91-1.93l56.25,28.25c3,1.53,4.45,4.88,3.13,7.48h0c-1.32,2.6-4.86,3.46-7.91,1.93Z"/><path class="cls-12" d="M1196.55,486.28h0c-2.39,4.7-8.8,6.27-14.32,3.49l-2.1-1.06-.57,1.12c-1.7,3.34-6.25,4.45-10.17,2.48h0c-3.92-2-5.72-6.27-4-9.61l.57-1.12h0c-5.23-2.62-7.63-8.36-5.36-12.82l.23-.45-6.57-3.3c-3-1.53-4.45-4.88-3.13-7.48h0c1.32-2.6,4.86-3.46,7.91-1.93l56.25,28.25c3,1.53,4.45,4.88,3.13,7.48h0c-1.32,2.6-4.86,3.46-7.91,1.93Z"/><path class="cls-11" d="M1235.31,526.17h0c-2.39,4.7-8.8,6.27-14.32,3.49l-2.1-1.06-.57,1.12c-1.7,3.34-6.25,4.45-10.17,2.48h0c-3.92-2-5.72-6.27-4-9.61l.57-1.12h0c-5.23-2.62-7.63-8.36-5.36-12.82l.23-.45-6.57-3.3c-3-1.53-4.45-4.88-3.13-7.48h0c1.32-2.6,4.86-3.46,7.91-1.93L1254,523.76c3,1.53,4.45,4.88,3.13,7.48h0c-1.32,2.6-4.86,3.46-7.91,1.93Z"/><path class="cls-11" d="M1237.79,507.54h0c-2.39,4.7-8.8,6.27-14.32,3.49l-2.1-1.06-.57,1.12c-1.7,3.34-6.25,4.45-10.17,2.48h0c-3.92-2-5.72-6.27-4-9.61l.57-1.12h0c-5.23-2.62-7.63-8.36-5.36-12.82l.23-.45-6.57-3.3c-3-1.53-4.45-4.88-3.13-7.48h0c1.32-2.6,4.86-3.46,7.91-1.93l56.25,28.25c3,1.53,4.45,4.88,3.13,7.48h0c-1.32,2.6-4.86,3.46-7.91,1.93Z"/><path class="cls-12" d="M1204.22,510.56h0c-2.39,4.7-8.8,6.27-14.32,3.49l-2.1-1.06-.57,1.12c-1.7,3.34-6.25,4.45-10.17,2.48h0c-3.92-2-5.72-6.27-4-9.61l.57-1.12h0c-5.23-2.62-7.63-8.36-5.36-12.82l.23-.45-6.57-3.3c-3-1.53-4.45-4.88-3.13-7.48h0c1.32-2.6,4.86-3.46,7.91-1.93l56.25,28.25c3,1.53,4.45,4.88,3.13,7.48h0c-1.32,2.6-4.86,3.46-7.91,1.93Z"/><path class="cls-12" d="M1263,519.65h0c-2.39,4.7-8.8,6.27-14.32,3.49l-2.1-1.06-.57,1.12c-1.7,3.34-6.25,4.45-10.17,2.48h0c-3.92-2-5.72-6.27-4-9.61l.57-1.12h0c-5.23-2.62-7.63-8.36-5.36-12.82l.23-.45-6.57-3.3c-3-1.53-4.45-4.88-3.13-7.48h0c1.32-2.6,4.86-3.46,7.91-1.93l56.25,28.25c3,1.53,4.45,4.88,3.13,7.48h0c-1.32,2.6-4.86,3.46-7.91,1.93Z"/><path class="cls-13" d="M1241.25,539.64h0c-2.39,4.7-8.8,6.27-14.32,3.49l-2.1-1.06-.57,1.12c-1.7,3.34-6.25,4.45-10.17,2.48h0c-3.92-2-5.72-6.27-4-9.61l.57-1.12h0c-5.23-2.62-7.63-8.36-5.36-12.82l.23-.45-6.57-3.3c-3-1.53-4.45-4.88-3.13-7.48h0c1.32-2.6,4.86-3.46,7.91-1.93L1260,537.23c3,1.53,4.45,4.88,3.13,7.48h0c-1.32,2.6-4.86,3.46-7.91,1.93Z"/><path class="cls-12" d="M1276.72,536.79h0c-2.39,4.7-8.8,6.27-14.32,3.49l-2.1-1.06-.57,1.12c-1.7,3.34-6.25,4.45-10.17,2.48h0c-3.92-2-5.72-6.27-4-9.61l.57-1.12h0c-5.23-2.62-7.63-8.36-5.36-12.82l.23-.45-6.57-3.3c-3-1.53-4.45-4.88-3.13-7.48h0c1.32-2.6,4.86-3.46,7.91-1.93l56.25,28.25c3,1.53,4.45,4.88,3.13,7.48h0c-1.32,2.6-4.86,3.46-7.91,1.93Z"/><path class="cls-11" d="M1227.89,534.41h0c-2.39,4.7-8.8,6.27-14.32,3.49l-2.1-1.06-.57,1.12c-1.7,3.34-6.25,4.45-10.17,2.48h0c-3.92-2-5.72-6.27-4-9.61l.57-1.12h0c-5.23-2.62-7.63-8.36-5.36-12.82l.23-.45-6.57-3.3c-3-1.53-4.45-4.88-3.13-7.48h0c1.32-2.6,4.86-3.46,7.91-1.93L1246.6,532c3,1.53,4.45,4.88,3.13,7.48h0c-1.32,2.6-4.86,3.46-7.91,1.93Z"/><path class="cls-9" d="M964.29,507.09h0c1.82-3.6-.13-8.23-4.36-10.34l-1.61-.8.43-.86c1.29-2.56-.09-5.85-3.09-7.35h0c-3-1.5-6.48-.64-7.77,1.92l-.43.86h0c-4-2-8.64-.85-10.36,2.56l-.17.34-5-2.51c-2.33-1.17-5-.5-6,1.49h0c-1,2,.07,4.55,2.41,5.71l43.07,21.52c2.33,1.17,5,.5,6-1.49h0c1-2-.07-4.55-2.41-5.71Z"/><path class="cls-9" d="M937.68,517.86h0c1.82-3.6-.13-8.23-4.36-10.34l-1.61-.8.43-.86c1.29-2.56-.09-5.85-3.09-7.35h0c-3-1.5-6.48-.64-7.77,1.92l-.43.86h0c-4-2-8.64-.85-10.36,2.56l-.17.34-5-2.51c-2.33-1.17-5-.5-6,1.49h0c-1,2,.07,4.55,2.41,5.71l43.07,21.52c2.33,1.17,5,.5,6-1.49h0c1-2-.07-4.55-2.41-5.71Z"/><path class="cls-10" d="M928.6,513.89h0c1.82-3.6-.13-8.23-4.36-10.34l-1.61-.8.43-.86c1.29-2.56-.09-5.85-3.09-7.35h0c-3-1.5-6.48-.64-7.77,1.92l-.43.86h0c-4-2-8.64-.85-10.36,2.56l-.17.34-5-2.51c-2.33-1.17-5-.5-6,1.49h0c-1,2,.07,4.55,2.41,5.71l43.07,21.52c2.33,1.17,5,.5,6-1.49h0c1-2-.07-4.55-2.41-5.71Z"/><path class="cls-11" d="M970.89,519.42h0c1.82-3.6-.13-8.23-4.36-10.34l-1.61-.8.43-.86c1.29-2.56-.09-5.85-3.09-7.35h0c-3-1.5-6.48-.64-7.77,1.92l-.43.86h0c-4-2-8.64-.85-10.36,2.56l-.17.34-5-2.51c-2.33-1.17-5-.5-6,1.49h0c-1,2,.07,4.55,2.41,5.71l43.07,21.52c2.33,1.17,5,.5,6-1.49h0c1-2-.07-4.55-2.41-5.71Z"/><path class="cls-11" d="M960.51,529.41h0c1.82-3.6-.13-8.23-4.36-10.34l-1.61-.8.43-.86c1.29-2.56-.09-5.85-3.09-7.35h0c-3-1.5-6.48-.64-7.77,1.92l-.43.86h0c-4-2-8.64-.85-10.36,2.56l-.17.34-5-2.51c-2.33-1.17-5-.5-6,1.49h0c-1,2,.07,4.55,2.41,5.71l43.07,21.52c2.33,1.17,5,.5,6-1.49h0c1-2-.07-4.55-2.41-5.71Z"/><path class="cls-10" d="M947.09,507.53h0c1.82-3.6-.13-8.23-4.36-10.34l-1.61-.8.43-.86c1.29-2.56-.09-5.85-3.09-7.35h0c-3-1.5-6.48-.64-7.77,1.92l-.43.86h0c-4-2-8.64-.85-10.36,2.56l-.17.34-5-2.51c-2.33-1.17-5-.5-6,1.49h0c-1,2,.07,4.55,2.41,5.71l43.07,21.52c2.33,1.17,5,.5,6-1.49h0c1-2-.07-4.55-2.41-5.71Z"/><path class="cls-10" d="M979.47,539.3h0c1.82-3.6-.13-8.23-4.36-10.34l-1.61-.8.43-.86c1.29-2.56-.09-5.85-3.09-7.35h0c-3-1.5-6.48-.64-7.77,1.92l-.43.86h0c-4-2-8.64-.85-10.36,2.56l-.17.34-5-2.51c-2.33-1.17-5-.5-6,1.49h0c-1,2,.07,4.55,2.41,5.71l43.07,21.52c2.33,1.17,5,.5,6-1.49h0c1-2-.07-4.55-2.41-5.71Z"/><path class="cls-9" d="M938,560h0c-1.83,3.59-6.73,4.79-10.95,2.67l-1.61-.81-.44.86c-1.3,2.55-4.78,3.4-7.78,1.9h0c-3-1.51-4.37-4.8-3.08-7.35l.44-.86h0c-4-2-5.83-6.4-4.1-9.8l.17-.34-5-2.52c-2.33-1.17-3.4-3.73-2.39-5.72h0c1-2,3.72-2.65,6.05-1.48l43,21.61c2.33,1.17,3.4,3.73,2.39,5.72h0c-1,2-3.72,2.65-6.05,1.48Z"/><path class="cls-9" d="M930.87,532.38h0c-1.83,3.59-6.73,4.79-10.95,2.67l-1.61-.81-.44.86c-1.3,2.55-4.78,3.4-7.78,1.9h0c-3-1.51-4.37-4.8-3.08-7.35l.44-.86h0c-4-2-5.83-6.4-4.1-9.8l.17-.34-5-2.52c-2.33-1.17-3.4-3.73-2.39-5.72h0c1-2,3.72-2.65,6.05-1.48l43,21.61c2.33,1.17,3.4,3.73,2.39,5.72h0c-1,2-3.72,2.65-6.05,1.48Z"/><path class="cls-12" d="M922.25,527.49h0c-1.83,3.59-6.73,4.79-10.95,2.67l-1.61-.81-.44.86c-1.3,2.55-4.78,3.4-7.78,1.9h0c-3-1.51-4.37-4.8-3.08-7.35l.44-.86h0c-4-2-5.83-6.4-4.1-9.8l.17-.34-5-2.52c-2.33-1.17-3.4-3.73-2.39-5.72h0c1-2,3.72-2.65,6.05-1.48l43,21.61c2.33,1.17,3.4,3.73,2.39,5.72h0c-1,2-3.72,2.65-6.05,1.48Z"/><path class="cls-11" d="M951.89,558h0c-1.83,3.59-6.73,4.79-10.95,2.67l-1.61-.81-.44.86c-1.3,2.55-4.78,3.4-7.78,1.9h0c-3-1.51-4.37-4.8-3.08-7.35l.44-.86h0c-4-2-5.83-6.4-4.1-9.8l.17-.34-5-2.52c-2.33-1.17-3.4-3.73-2.39-5.72h0c1-2,3.72-2.65,6.05-1.48l43,21.61c2.33,1.17,3.4,3.73,2.39,5.72h0c-1,2-3.72,2.65-6.05,1.48Z"/><path class="cls-11" d="M953.79,543.75h0c-1.83,3.59-6.73,4.79-10.95,2.67l-1.61-.81-.44.86c-1.3,2.55-4.78,3.4-7.78,1.9h0c-3-1.51-4.37-4.8-3.08-7.35l.44-.86h0c-4-2-5.83-6.4-4.1-9.8l.17-.34-5-2.52c-2.33-1.17-3.4-3.73-2.39-5.72h0c1-2,3.72-2.65,6.05-1.48l43,21.61c2.33,1.17,3.4,3.73,2.39,5.72h0c-1,2-3.72,2.65-6.05,1.48Z"/><path class="cls-12" d="M928.11,546h0c-1.83,3.59-6.73,4.79-10.95,2.67l-1.61-.81-.44.86c-1.3,2.55-4.78,3.4-7.78,1.9h0c-3-1.51-4.37-4.8-3.08-7.35l.44-.86h0c-4-2-5.83-6.4-4.1-9.8l.17-.34-5-2.52c-2.33-1.17-3.4-3.73-2.39-5.72h0c1-2,3.72-2.65,6.05-1.48l43,21.61c2.33,1.17,3.4,3.73,2.39,5.72h0c-1,2-3.72,2.65-6.05,1.48Z"/><path class="cls-12" d="M973.06,553h0c-1.83,3.59-6.73,4.79-10.95,2.67l-1.61-.81-.44.86c-1.3,2.55-4.78,3.4-7.78,1.9h0c-3-1.51-4.37-4.8-3.08-7.35l.44-.86h0c-4-2-5.83-6.4-4.1-9.8l.17-.34-5-2.52c-2.33-1.17-3.4-3.73-2.39-5.72h0c1-2,3.72-2.65,6.05-1.48l43,21.61c2.33,1.17,3.4,3.73,2.39,5.72h0c-1,2-3.72,2.65-6.05,1.48Z"/><path class="cls-13" d="M956.43,568.29h0c-1.83,3.59-6.73,4.79-10.95,2.67l-1.61-.81-.44.86c-1.3,2.55-4.78,3.4-7.78,1.9h0c-3-1.51-4.37-4.8-3.08-7.35l.44-.86h0c-4-2-5.83-6.4-4.1-9.8l.17-.34-5-2.52c-2.33-1.17-3.4-3.73-2.39-5.72h0c1-2,3.72-2.65,6.05-1.48l43,21.61c2.33,1.17,3.4,3.73,2.39,5.72h0c-1,2-3.72,2.65-6.05,1.48Z"/><path class="cls-12" d="M983.56,566.11h0c-1.83,3.59-6.73,4.79-10.95,2.67L971,568l-.44.86c-1.3,2.55-4.78,3.4-7.78,1.9h0c-3-1.51-4.37-4.8-3.08-7.35l.44-.86h0c-4-2-5.83-6.4-4.1-9.8l.17-.34-5-2.52c-2.33-1.17-3.4-3.73-2.39-5.72h0c1-2,3.72-2.65,6.05-1.48l43,21.61c2.33,1.17,3.4,3.73,2.39,5.72h0c-1,2-3.72,2.65-6.05,1.48Z"/><path class="cls-11" d="M946.21,564.29h0c-1.83,3.59-6.73,4.79-10.95,2.67l-1.61-.81-.44.86c-1.3,2.55-4.78,3.4-7.78,1.9h0c-3-1.51-4.37-4.8-3.08-7.35l.44-.86h0c-4-2-5.83-6.4-4.1-9.8l.17-.34-5-2.52c-2.33-1.17-3.4-3.73-2.39-5.72h0c1-2,3.72-2.65,6.05-1.48l43,21.61c2.33,1.17,3.4,3.73,2.39,5.72h0c-1,2-3.72,2.65-6.05,1.48Z"/><path class="cls-13" d="M1312.23,422.09V403.33h-20.67v18.76a24.06,24.06,0,0,1-10.09,19.32,21,21,0,0,0-8.58,16.92v97.94a14.27,14.27,0,0,0,14.27,14.27h29.45a14.27,14.27,0,0,0,14.27-14.27V458.33a21,21,0,0,0-8.58-16.92A24.06,24.06,0,0,1,1312.23,422.09Z"/><rect class="cls-14" x="1289.56" y="388.58" width="24.67" height="14.75" rx="3.75" ry="3.75"/><rect class="cls-11" x="1279.56" y="476.83" width="5.5" height="72.5" rx="2.75" ry="2.75"/><rect class="cls-11" x="1279.56" y="455.33" width="5.5" height="9" rx="2.75" ry="2.75"/><path class="cls-11" d="M1327.46,446.83a21.1,21.1,0,0,0-5.14-5.42,24.06,24.06,0,0,1-10.09-19.32V403.33h-20.67v18.76a24.06,24.06,0,0,1-10.09,19.32,21.1,21.1,0,0,0-5.14,5.42Z"/><path class="cls-14" d="M1167.24,570.37c-26.39,0-47.86-19.34-47.86-43.11s21.47-43.11,47.86-43.11h71.9c26.39,0,47.86,19.34,47.86,43.11s-21.47,43.11-47.86,43.11Z"/><rect class="cls-15" x="1124.93" y="489.14" width="156.53" height="76.23" rx="38.11" ry="38.11"/><circle class="cls-14" cx="1234.07" cy="518.18" r="5"/><circle class="cls-14" cx="1254.73" cy="539.52" r="1.67"/><circle class="cls-14" cx="1224.73" cy="539.52" r="6.33"/><circle class="cls-14" cx="1206.4" cy="511.18" r="2"/><circle class="cls-14" cx="1178.73" cy="528.85" r="3"/><circle class="cls-14" cx="1170.73" cy="507.52" r="1.67"/><circle class="cls-14" cx="1153.23" cy="532.68" r="0.83"/><circle class="cls-14" cx="1170.73" cy="556.18" r="1.67"/><circle class="cls-14" cx="1189.4" cy="547.52" r="5"/><circle class="cls-14" cx="1195.73" cy="523.85" r="3.33"/><circle class="cls-14" cx="1232.57" cy="494.68" r="1.5"/><circle class="cls-14" cx="1253.57" cy="521.02" r="1.17"/><circle class="cls-14" cx="1193.07" cy="493.85" r="1.33"/><rect class="cls-16" x="1204.03" y="503.34" width="9.25" height="6.71" rx="3.36" ry="3.36" transform="translate(711.33 -705.84) rotate(44.95)"/><rect class="cls-16" x="1208.12" y="539.37" width="9.25" height="6.71" rx="3.36" ry="3.36" transform="translate(737.98 -698.2) rotate(44.95)"/><rect class="cls-17" x="1329.34" y="514.46" width="8" height="17.33" transform="translate(709.9 -766.36) rotate(42.77)"/><path class="cls-17" d="M1329.71,530.68h0c-3.16-6.82-11.67-9.64-19.26-7.75a94.21,94.21,0,0,1-78.9-15.29c-6.34-4.59-15.28-5.15-20.76,0h0c-5.47,5.11-3.83,15.66,4.71,21.91a121.38,121.38,0,0,0,101.65,19.7C1327.41,546.64,1332.87,537.46,1329.71,530.68Z"/><path class="cls-16" d="M1329.71,530.68h0a107.75,107.75,0,0,1-118.92-23h0c-5.48,5.08-3.21,16.35,6.36,23.11a121.39,121.39,0,0,0,98,19C1326.58,547,1332.9,537.45,1329.71,530.68Z"/><path class="cls-17" d="M1333.13,530.27h0c-5.07-5.55-14-5.68-20.7-1.59a94.21,94.21,0,0,1-79.84,9.2c-7.43-2.47-16.12-.3-19.8,6.26h0c-3.68,6.52,1.07,16.09,11.09,19.48a121.38,121.38,0,0,0,102.87-11.85C1335.75,546.18,1338.19,535.78,1333.13,530.27Z"/><path class="cls-16" d="M1333.13,530.27h0a107.75,107.75,0,0,1-120.33,13.86h0c-3.7,6.5,1.87,16.56,13,20.11A121.39,121.39,0,0,0,1325,552.82C1335.07,546.81,1338.21,535.76,1333.13,530.27Z"/><rect class="cls-17" x="1328.95" y="509.49" width="23.17" height="8" rx="4" ry="4" transform="translate(794.38 -814.07) rotate(46.68)"/><rect class="cls-16" x="1338.66" y="513.82" width="11.92" height="8" rx="4" ry="4" transform="translate(798.82 -815.69) rotate(46.68)"/><rect class="cls-9" x="975.49" y="451.76" width="27.96" height="6.24" transform="translate(1729.42 1253.9) rotate(-157.49)"/><path class="cls-9" d="M995,417.72h0a6.43,6.43,0,0,0-8.4-3.48l-1.25.52L985,414a4.57,4.57,0,0,0-6-2.47h0a4.57,4.57,0,0,0-2.47,6l.32.78h0a6.09,6.09,0,0,0-3.3,8l.13.31-3.91,1.62a3.55,3.55,0,0,0-1.92,4.64h0a3.55,3.55,0,0,0,4.64,1.92L1006,420.85a3.55,3.55,0,0,0,1.92-4.64h0a3.55,3.55,0,0,0-4.64-1.92Z"/><path class="cls-9" d="M989.08,440.65h0a6.43,6.43,0,0,0-8.4-3.48l-1.25.52-.32-.78a4.57,4.57,0,0,0-6-2.47h0a4.57,4.57,0,0,0-2.47,6l.32.78h0a6.09,6.09,0,0,0-3.3,8l.13.31-3.91,1.62a3.55,3.55,0,0,0-1.92,4.64h0a3.55,3.55,0,0,0,4.64,1.92l33.43-13.84a3.55,3.55,0,0,0,1.92-4.64h0a3.55,3.55,0,0,0-4.64-1.92Z"/><path class="cls-13" d="M982.38,443.91h0a6.43,6.43,0,0,0-8.4-3.48l-1.25.52-.32-.78a4.57,4.57,0,0,0-6-2.47h0a4.57,4.57,0,0,0-2.47,6l.32.78h0a6.09,6.09,0,0,0-3.3,8l.13.31-3.91,1.62A3.55,3.55,0,0,0,955.3,459h0a3.55,3.55,0,0,0,4.64,1.92L993.37,447a3.55,3.55,0,0,0,1.92-4.64h0a3.55,3.55,0,0,0-4.64-1.92Z"/><path class="cls-11" d="M1005.63,421h0a6.43,6.43,0,0,0-8.4-3.48L996,418l-.32-.78a4.57,4.57,0,0,0-6-2.47h0a4.57,4.57,0,0,0-2.47,6l.32.78h0a6.09,6.09,0,0,0-3.3,8l.13.31-3.91,1.62a3.55,3.55,0,0,0-1.92,4.64h0a3.55,3.55,0,0,0,4.64,1.92l33.43-13.84a3.55,3.55,0,0,0,1.92-4.64h0a3.55,3.55,0,0,0-4.64-1.92Z"/><path class="cls-11" d="M1006.89,433.4h0a6.43,6.43,0,0,0-8.4-3.48l-1.25.52-.32-.78a4.57,4.57,0,0,0-6-2.47h0a4.57,4.57,0,0,0-2.47,6l.32.78h0a6.09,6.09,0,0,0-3.3,8l.13.31-3.91,1.62a3.55,3.55,0,0,0-1.92,4.64h0a3.55,3.55,0,0,0,4.64,1.92l33.43-13.84a3.55,3.55,0,0,0,1.92-4.64h0a3.55,3.55,0,0,0-4.64-1.92Z"/><path class="cls-13" d="M987.15,428.64h0a6.43,6.43,0,0,0-8.4-3.48l-1.25.52-.32-.78a4.57,4.57,0,0,0-6-2.47h0a4.57,4.57,0,0,0-2.47,6l.32.78h0a6.09,6.09,0,0,0-3.3,8l.13.31L962,439.05a3.55,3.55,0,0,0-1.92,4.64h0a3.55,3.55,0,0,0,4.64,1.92l33.43-13.84a3.55,3.55,0,0,0,1.92-4.64h0a3.55,3.55,0,0,0-4.64-1.92Z"/><path class="cls-13" d="M1021.87,427.56h0a6.43,6.43,0,0,0-8.4-3.48l-1.25.52-.32-.78a4.57,4.57,0,0,0-6-2.47h0a4.57,4.57,0,0,0-2.47,6l.32.78h0a6.09,6.09,0,0,0-3.3,8l.13.31L996.71,438a3.55,3.55,0,0,0-1.92,4.64h0a3.55,3.55,0,0,0,4.64,1.92l33.43-13.84a3.55,3.55,0,0,0,1.92-4.64h0a3.55,3.55,0,0,0-4.64-1.92Z"/><path class="cls-11" d="M1012.54,434.15h0a4,4,0,0,0-5.38,1.63l-10.8,20.15a4,4,0,0,0-.17,3.4l7.27,17.55a4,4,0,0,0,5.19,2.15l.38-.16a4,4,0,0,0,2.15-5.19l-6-14.38a4,4,0,0,1,.17-3.4l8.77-16.36A4,4,0,0,0,1012.54,434.15Z"/><path class="cls-6" d="M930.58,198.82h137.74A36.67,36.67,0,0,1,1105,235.48V413"/><rect class="cls-18" x="1014.08" y="425.17" width="61.87" height="58.67" rx="29.33" ry="29.33" transform="translate(-93.15 397.94) rotate(-20.66)"/><path class="cls-19" d="M1055.36,481.95l1.5-.57a29.33,29.33,0,0,0,17.1-37.8h0a29.33,29.33,0,0,0-37.8-17.1l-1.5.57Z"/><rect class="cls-13" x="1032.53" y="414.37" width="7.19" height="22.07" transform="translate(-80.47 337.38) rotate(-17.81)"/><rect class="cls-20" x="1018.26" y="408.08" width="24.28" height="8.21" rx="4.11" ry="4.11" transform="translate(-79.38 414.55) rotate(-21.92)"/><rect class="cls-13" x="1029.13" y="405.93" width="13.22" height="8.21" rx="4.11" ry="4.11" transform="translate(-78.19 416.38) rotate(-21.92)"/><path class="cls-20" d="M1035.4,425.85h0a0,0,0,0,1,0,0V431A12.94,12.94,0,0,1,1022.46,444h0a0,0,0,0,1,0,0v-5.18A12.94,12.94,0,0,1,1035.4,425.85Z" transform="translate(208.77 -323.49) rotate(19.85)"/><path class="cls-13" d="M1038.09,428.58l-2.8,7.76a9.87,9.87,0,0,1-12.63,5.93l-2.89-1"/><path class="cls-20" d="M1047.91,428.36h0a0,0,0,0,1,0,0v5.18A12.94,12.94,0,0,1,1035,446.48h0a0,0,0,0,1,0,0V441.3A12.94,12.94,0,0,1,1047.91,428.36Z" transform="translate(151.33 1132.87) rotate(-60.78)"/><path class="cls-13" d="M1036.69,427.35l7.2,4a9.87,9.87,0,0,1,3.8,13.43l-1.5,2.68"/><rect class="cls-13" x="1150.39" y="375.09" width="11.25" height="34.57" transform="translate(118.07 -250.27) rotate(13.02)"/><path class="cls-21" d="M1153.09,397.57h0c-16.45-2.93-32.18,8-36.81,23.89a344.4,344.4,0,0,1-36.13,82.62c-8.53,14.19-5.86,33.15,7.46,43.24h0c13.27,10.07,33.9,5.19,44.27-12a404.85,404.85,0,0,0,42.47-97.12C1179.92,418.94,1169.5,400.47,1153.09,397.57Z"/><path class="cls-22" d="M1152.74,397.5h0c16.41,2.9,26.83,21.35,21.26,40.61a404.49,404.49,0,0,1-42.43,97c-10.36,17.16-31,22-44.25,12h0A374.26,374.26,0,0,0,1152.74,397.5Z"/><rect class="cls-20" x="1139.91" y="363.57" width="38.04" height="12.86" rx="5.66" ry="5.66" transform="matrix(0.99, 0.15, -0.15, 0.99, 71.25, -174.94)"/><rect class="cls-13" x="1157.49" y="364.96" width="20.7" height="12.86" rx="5.66" ry="5.66" transform="translate(71.57 -176.3) rotate(8.91)"/><path class="cls-20" d="M1146.4,385.18h2.44a0,0,0,0,1,0,0v10.55A17.82,17.82,0,0,1,1131,413.56h-2.44a0,0,0,0,1,0,0V403A17.82,17.82,0,0,1,1146.4,385.18Z" transform="translate(726.05 -734.6) rotate(50.68)"/><path class="cls-13" d="M1156.11,398.22l-10,8.19a15.45,15.45,0,0,1-21.75-2.16l-3.05-3.72"/><path class="cls-20" d="M1175.84,393.31h2.44a0,0,0,0,1,0,0v10.55a17.82,17.82,0,0,1-17.82,17.82H1158a0,0,0,0,1,0,0V411.14A17.82,17.82,0,0,1,1175.84,393.31Z" transform="translate(628.46 1520.77) rotate(-83.37)"/><path class="cls-13" d="M1155.23,395.8l12.83,1.49a15.45,15.45,0,0,1,13.56,17.13l-.56,4.78"/><path class="cls-20" d="M1161.22,398.61h2.44a0,0,0,0,1,0,0v10.55A17.82,17.82,0,0,1,1145.84,427h-2.44a0,0,0,0,1,0,0V416.43A17.82,17.82,0,0,1,1161.22,398.61Z" transform="translate(-52.03 631.1) rotate(-29.95)"/><path class="cls-13" d="M1155.22,395.45l6.45,11.19a15.45,15.45,0,0,1-5.67,21.1l-4.17,2.4"/><rect class="cls-9" x="1083.16" y="408.83" width="18.17" height="4.05" transform="translate(1263.37 1565.21) rotate(-119.05)"/><path class="cls-9" d="M1107.06,404.9h0a4.18,4.18,0,0,0-3-5.1l-.85-.22.14-.53a3,3,0,0,0-2.12-3.62h0a3,3,0,0,0-3.62,2.12l-.14.53h0a4,4,0,0,0-4.83,2.82l-.06.21-2.66-.7a2.31,2.31,0,0,0-2.82,1.65h0a2.31,2.31,0,0,0,1.65,2.82l22.75,6a2.31,2.31,0,0,0,2.82-1.65h0a2.31,2.31,0,0,0-1.65-2.82Z"/><path class="cls-11" d="M1111.31,410.79h0a4.18,4.18,0,0,0-3-5.1l-.85-.22.14-.53a3,3,0,0,0-2.12-3.62h0a3,3,0,0,0-3.62,2.12l-.14.53h0a4,4,0,0,0-4.83,2.82l-.06.21-2.66-.7a2.31,2.31,0,0,0-2.82,1.65h0a2.31,2.31,0,0,0,1.65,2.82l22.75,6a2.31,2.31,0,0,0,2.82-1.65h0a2.31,2.31,0,0,0-1.65-2.82Z"/><path class="cls-13" d="M1098.73,407.49h0a4.18,4.18,0,0,0-3-5.1l-.85-.22.14-.53a3,3,0,0,0-2.12-3.62h0a3,3,0,0,0-3.62,2.12l-.14.53h0a4,4,0,0,0-4.83,2.82l-.06.21-2.66-.7a2.31,2.31,0,0,0-2.82,1.65h0a2.31,2.31,0,0,0,1.65,2.82l22.75,6a2.31,2.31,0,0,0,2.82-1.65h0a2.31,2.31,0,0,0-1.65-2.82Z"/><path class="cls-11" d="M1112.37,409.63h0a2.58,2.58,0,0,0-3.4-1.35l-13.64,5.89a2.58,2.58,0,0,0-1.46,1.66l-3.39,11.87a2.58,2.58,0,0,0,1.77,3.2l.26.07a2.58,2.58,0,0,0,3.2-1.77l2.78-9.73a2.58,2.58,0,0,1,1.46-1.66L1111,413A2.58,2.58,0,0,0,1112.37,409.63Z"/><path class="cls-23" d="M1095.15,423.73h0a17.54,17.54,0,0,0-21.69,13.86l-15.65,86.67a10.07,10.07,0,0,0,7.36,11.53h0a10.07,10.07,0,0,0,12-6.31l30-82.79A17.54,17.54,0,0,0,1095.15,423.73Z"/><path class="cls-24" d="M1095.15,423.73l-29.3,112.2a10.06,10.06,0,0,0,11.33-6.45l30-82.79A17.54,17.54,0,0,0,1095.15,423.73Z"/><polygon class="cls-25" points="944.89 571.94 942.54 471.58 931.29 471.58 928.95 571.94 944.89 571.94"/><path class="cls-26" d="M930.77,491.66H937c-.12-6-8.1-8.32-8.1-8.32Z"/><path class="cls-27" d="M943.5,505.89h-6.55c.13-6.32,8.48-8.71,8.48-8.71Z"/><path class="cls-28" d="M929.94,520.88h6.82c-.13-6.57-8.82-9.05-8.82-9.05Z"/><path class="cls-26" d="M944.41,539.9h-7.19c.14-6.87,9.23-9.48,9.23-9.48Z"/><polygon class="cls-25" points="917.83 571.94 916.37 503.29 905.12 503.29 903.66 571.94 917.83 571.94"/><path class="cls-25" d="M910.75,472.59c-4,9-2.12,12.39,0,12.55C912.86,485,914.77,481.61,910.75,472.59Z"/><path class="cls-27" d="M908.48,475.61c-4.41,9.35-3.11,13.73-.67,14.69C910.27,490.83,912.49,486.15,908.48,475.61Z"/><path class="cls-28" d="M913,475.61c4.41,9.35,3.1,13.73.67,14.69C911.22,490.83,909,486.15,913,475.61Z"/><path class="cls-26" d="M910.75,479.86c-4.78,11.25-3,16.07,0,16.38C913.78,495.93,915.52,491.11,910.75,479.86Z"/><path class="cls-26" d="M905.62,481c-4.33,8.86-2.67,15.13.12,16.82C908.6,499,909.57,492.61,905.62,481Z"/><path class="cls-28" d="M907.67,484.2c-5.69,9-4.36,13.92-1.33,15.76C909.56,501.14,912.2,496.5,907.67,484.2Z"/><path class="cls-25" d="M915.87,481c4.33,8.86,2.67,15.13-.12,16.82C912.9,499,911.92,492.61,915.87,481Z"/><path class="cls-27" d="M913.83,484.2c5.69,9.05,4.36,13.93,1.33,15.76C911.93,501.14,909.29,496.5,913.83,484.2Z"/><path class="cls-25" d="M902.41,488.48c-2.18,9.47.91,15.82,5.19,17a12,12,0,0,0,3.14.46C911,505.64,907.42,497.84,902.41,488.48Z"/><path class="cls-26" d="M919.09,488.48c2.18,9.47-.91,15.82-5.2,17a12,12,0,0,1-3.14.46C910.51,505.64,914.07,497.84,919.09,488.48Z"/><path class="cls-25" d="M910.75,488c-5.39,10.81-3.58,16.84,0,17.22C914.33,504.87,916.14,498.85,910.75,488Z"/><path class="cls-27" d="M906.37,492.28c-4.59,6.81-1.32,12.52,4.38,13.61C910.91,505.86,910.8,498.47,906.37,492.28Z"/><path class="cls-28" d="M915.15,492.28c4.59,6.81,1.32,12.52-4.37,13.61C910.62,505.86,910.71,498.47,915.15,492.28Z"/><path class="cls-26" d="M904.59,523.6h6.26c-.12-6-8.1-8.32-8.1-8.32Z"/><path class="cls-27" d="M917.32,537.83h-6.55c.13-6.32,8.48-8.71,8.48-8.71Z"/><polygon class="cls-25" points="969.67 571.94 968.21 503.29 956.96 503.29 955.5 571.94 969.67 571.94"/><path class="cls-25" d="M962.58,472.59c-4,9-2.12,12.39,0,12.55C964.7,485,966.6,481.61,962.58,472.59Z"/><path class="cls-27" d="M960.32,475.61c-4.41,9.35-3.11,13.73-.67,14.69C962.1,490.83,964.33,486.15,960.32,475.61Z"/><path class="cls-28" d="M964.85,475.61c4.41,9.35,3.1,13.73.67,14.69C963.06,490.83,960.84,486.15,964.85,475.61Z"/><path class="cls-26" d="M962.58,479.86c-4.78,11.25-3,16.07,0,16.38C965.61,495.93,967.36,491.11,962.58,479.86Z"/><path class="cls-26" d="M957.46,481c-4.33,8.86-2.67,15.13.12,16.82C960.43,499,961.41,492.61,957.46,481Z"/><path class="cls-28" d="M959.5,484.2c-5.69,9-4.36,13.92-1.33,15.76C961.39,501.14,964,496.5,959.5,484.2Z"/><path class="cls-25" d="M967.71,481c4.33,8.86,2.67,15.13-.12,16.82C964.73,499,963.76,492.61,967.71,481Z"/><path class="cls-27" d="M965.66,484.2c5.69,9.05,4.36,13.93,1.33,15.76C963.77,501.14,961.13,496.5,965.66,484.2Z"/><path class="cls-25" d="M954.24,488.48c-2.18,9.47.91,15.82,5.19,17a12,12,0,0,0,3.14.46C962.82,505.64,959.26,497.84,954.24,488.48Z"/><path class="cls-26" d="M970.92,488.48c2.18,9.47-.91,15.82-5.2,17a12,12,0,0,1-3.14.46C962.35,505.64,965.91,497.84,970.92,488.48Z"/><path class="cls-25" d="M962.58,488c-5.39,10.81-3.58,16.84,0,17.22C966.17,504.87,968,498.85,962.58,488Z"/><path class="cls-27" d="M958.2,492.28c-4.59,6.81-1.32,12.52,4.38,13.61C962.75,505.86,962.64,498.47,958.2,492.28Z"/><path class="cls-28" d="M967,492.28c4.59,6.81,1.32,12.52-4.37,13.61C962.45,505.86,962.55,498.47,967,492.28Z"/><path class="cls-26" d="M956.43,523.6h6.26c-.12-6-8.1-8.32-8.1-8.32Z"/><path class="cls-27" d="M969.16,537.83h-6.55c.13-6.32,8.48-8.71,8.48-8.71Z"/><path class="cls-25" d="M936.8,440.49c-4,9-2.12,12.39,0,12.55C938.92,452.88,940.82,449.5,936.8,440.49Z"/><path class="cls-27" d="M934.54,443.5c-4.41,9.35-3.11,13.73-.67,14.69C936.32,458.73,938.55,454,934.54,443.5Z"/><path class="cls-28" d="M939.06,443.5c4.41,9.35,3.1,13.73.67,14.69C937.28,458.73,935.06,454,939.06,443.5Z"/><path class="cls-26" d="M936.8,447.75c-4.78,11.25-3,16.07,0,16.38C939.83,463.82,941.58,459,936.8,447.75Z"/><path class="cls-26" d="M931.67,448.9c-4.33,8.86-2.67,15.13.12,16.82C934.65,466.9,935.63,460.51,931.67,448.9Z"/><path class="cls-28" d="M933.72,452.09c-5.69,9-4.36,13.92-1.33,15.76C935.61,469,938.25,464.4,933.72,452.09Z"/><path class="cls-25" d="M941.93,448.9c4.33,8.86,2.67,15.13-.12,16.82C939,466.9,938,460.51,941.93,448.9Z"/><path class="cls-27" d="M939.88,452.09c5.69,9.05,4.36,13.93,1.33,15.76C938,469,935.35,464.4,939.88,452.09Z"/><path class="cls-25" d="M928.46,456.37c-2.18,9.47.91,15.82,5.19,17a12,12,0,0,0,3.14.46C937,473.53,933.47,465.74,928.46,456.37Z"/><path class="cls-26" d="M945.14,456.37c2.18,9.47-.91,15.82-5.2,17a12,12,0,0,1-3.14.46C936.57,473.53,940.12,465.73,945.14,456.37Z"/><path class="cls-25" d="M936.8,455.93c-5.39,10.81-3.58,16.84,0,17.22C940.38,472.77,942.19,466.74,936.8,455.93Z"/><path class="cls-27" d="M932.42,460.18c-4.59,6.81-1.32,12.52,4.38,13.61C937,473.75,936.86,466.37,932.42,460.18Z"/><path class="cls-28" d="M941.2,460.18c4.59,6.81,1.32,12.52-4.37,13.61C936.67,473.75,936.77,466.37,941.2,460.18Z"/><rect class="cls-29" x="976.18" y="451.83" width="200.44" height="13.4" rx="5.89" ry="5.89"/><path class="cls-30" d="M1169.92,451.83H983.14a6.87,6.87,0,0,0-6.95,6.29,6.7,6.7,0,0,0,6.69,7.11h1v37.51a60.32,60.32,0,0,0,60.32,60.32h64.49A60.32,60.32,0,0,0,1169,502.74V465.27a0,0,0,0,1,0,0h.66a6.87,6.87,0,0,0,6.95-6.29A6.7,6.7,0,0,0,1169.92,451.83Z"/><path class="cls-11" d="M982.88,465.23h1v19.16H1169V465.27a0,0,0,0,1,0,0h.66a6.87,6.87,0,0,0,6.95-6.29,6.7,6.7,0,0,0-6.69-7.11H983.14a6.87,6.87,0,0,0-6.95,6.29A6.7,6.7,0,0,0,982.88,465.23Z"/><path class="cls-11" d="M986.26,519.65a60.33,60.33,0,0,0,57.89,43.41h64.49a60.33,60.33,0,0,0,57.89-43.41Z"/><rect class="cls-29" x="1003.45" y="551.27" width="145.91" height="18.14" rx="7.97" ry="7.97"/><rect class="cls-29" x="976.71" y="451.83" width="199.91" height="13.4" rx="5.89" ry="5.89"/><rect class="cls-31" x="933.2" y="546.85" width="30.51" height="10.33" transform="translate(-131.41 356.63) rotate(-19.94)"/><circle class="cls-32" cx="928.78" cy="553.07" r="6.48" transform="translate(252.37 1396.28) rotate(-82.04)"/><circle class="cls-31" cx="931.9" cy="561.1" r="6.48" transform="matrix(0.14, -0.99, 0.99, 0.14, 247.1, 1406.27)"/><path class="cls-33" d="M998,497.48h0l-22.29,6.59c-17.13,5.06-27.32,24.63-22.77,43.71h0c2.46,10.33,12,16.47,21.24,13.73L986.11,558c7.35-2.17,15.16.56,20.08,7h0a13.77,13.77,0,0,0,10.95,5.63l27.87,0-.14-80.73-40.09.07C1001.05,489.95,998,493.32,998,497.48Z"/><rect class="cls-34" x="1023.4" y="489.87" width="46.13" height="80.73" rx="23.06" ry="23.06" transform="translate(-0.89 1.77) rotate(-0.1)"/><path class="cls-35" d="M1030,514.41l.05,31.7a13,13,0,0,0,13,13h7a13,13,0,0,0,13-13l-.05-31.7a13,13,0,0,0-13-13h-7A13,13,0,0,0,1030,514.41ZM1046.5,553h0a13,13,0,0,1-13-13l0-19.47a13,13,0,0,1,13-13h0a13,13,0,0,1,13,13l0,19.47A13,13,0,0,1,1046.5,553Z"/><ellipse class="cls-35" cx="1050" cy="529.34" rx="1.92" ry="3.84" transform="matrix(1, 0, 0, 1, -0.89, 1.77)"/><line class="cls-36" x1="818.07" y1="441.45" x2="829.93" y2="416.81"/><line class="cls-36" x1="787.03" y1="511.63" x2="805.14" y2="494.05"/><line class="cls-37" x1="812.47" y1="501.98" x2="798.34" y2="487.85"/><line class="cls-38" x1="686.74" y1="566.65" x2="686.74" y2="514.28"/><line class="cls-38" x1="702.93" y1="564.09" x2="686.74" y2="514.28"/><line class="cls-38" x1="717.53" y1="556.65" x2="686.74" y2="514.28"/><line class="cls-38" x1="729.11" y1="545.06" x2="686.74" y2="514.28"/><line class="cls-38" x1="736.55" y1="530.46" x2="686.74" y2="514.28"/><line class="cls-38" x1="739.12" y1="514.28" x2="686.74" y2="514.28"/><line class="cls-38" x1="736.55" y1="498.09" x2="686.74" y2="514.28"/><line class="cls-38" x1="729.11" y1="483.49" x2="686.74" y2="514.28"/><line class="cls-38" x1="717.53" y1="471.91" x2="686.74" y2="514.28"/><line class="cls-38" x1="702.93" y1="464.47" x2="686.74" y2="514.28"/><line class="cls-38" x1="686.74" y1="461.9" x2="686.74" y2="514.28"/><line class="cls-38" x1="670.56" y1="464.47" x2="686.74" y2="514.28"/><line class="cls-38" x1="655.96" y1="471.91" x2="686.74" y2="514.28"/><line class="cls-38" x1="644.37" y1="483.49" x2="686.74" y2="514.28"/><line class="cls-38" x1="636.93" y1="498.09" x2="686.74" y2="514.28"/><line class="cls-38" x1="634.37" y1="514.28" x2="686.74" y2="514.28"/><line class="cls-38" x1="636.93" y1="530.46" x2="686.74" y2="514.28"/><line class="cls-38" x1="644.37" y1="545.06" x2="686.74" y2="514.28"/><line class="cls-38" x1="655.96" y1="556.65" x2="686.74" y2="514.28"/><line class="cls-38" x1="670.56" y1="564.09" x2="686.74" y2="514.28"/><line class="cls-38" x1="863.77" y1="566.65" x2="863.77" y2="514.28"/><line class="cls-38" x1="879.95" y1="564.09" x2="863.77" y2="514.28"/><line class="cls-38" x1="894.55" y1="556.65" x2="863.77" y2="514.28"/><line class="cls-38" x1="906.14" y1="545.06" x2="863.77" y2="514.28"/><line class="cls-38" x1="913.58" y1="530.46" x2="863.77" y2="514.28"/><line class="cls-38" x1="916.14" y1="514.28" x2="863.77" y2="514.28"/><line class="cls-38" x1="913.58" y1="498.09" x2="863.77" y2="514.28"/><line class="cls-38" x1="906.14" y1="483.49" x2="863.77" y2="514.28"/><line class="cls-38" x1="894.55" y1="471.91" x2="863.77" y2="514.28"/><line class="cls-38" x1="879.95" y1="464.47" x2="863.77" y2="514.28"/><line class="cls-38" x1="863.77" y1="461.9" x2="863.77" y2="514.28"/><line class="cls-38" x1="847.58" y1="464.47" x2="863.77" y2="514.28"/><line class="cls-38" x1="832.98" y1="471.91" x2="863.77" y2="514.28"/><line class="cls-38" x1="821.4" y1="483.49" x2="863.77" y2="514.28"/><line class="cls-38" x1="813.96" y1="498.09" x2="863.77" y2="514.28"/><line class="cls-38" x1="811.39" y1="514.28" x2="863.77" y2="514.28"/><line class="cls-38" x1="813.96" y1="530.46" x2="863.77" y2="514.28"/><line class="cls-38" x1="821.4" y1="545.06" x2="863.77" y2="514.28"/><line class="cls-38" x1="832.98" y1="556.65" x2="863.77" y2="514.28"/><line class="cls-38" x1="847.58" y1="564.09" x2="863.77" y2="514.28"/><circle class="cls-37" cx="686.74" cy="514.29" r="55.45"/><circle class="cls-37" cx="864.2" cy="514.29" r="55.45"/><circle class="cls-32" cx="686.41" cy="514.58" r="6.88"/><circle class="cls-32" cx="863.77" cy="514.58" r="6.88"/><polygon class="cls-39" points="864.2 514.29 820.36 436.33 785.58 514.29 864.2 514.29"/><line class="cls-39" x1="686.74" y1="514.29" x2="737.33" y2="412.34"/><polyline class="cls-39" points="785.58 514.29 723.85 436.33 820.36 436.33"/><circle class="cls-16" cx="786.05" cy="514.28" r="15.05"/><path class="cls-33" d="M824,408.74h0a4.58,4.58,0,0,0-3.32,1.48,2.18,2.18,0,0,1-1.55.64h-15a2.19,2.19,0,0,0-2.19,2.19v.27a7.17,7.17,0,0,0,7.17,7.17h23a11.81,11.81,0,0,0,11.81-11.81h0a2.19,2.19,0,0,0-2.19-2.19l-11.89.17a2.18,2.18,0,0,0-1.35.47A7.12,7.12,0,0,1,824,408.74Z"/><polyline class="cls-40" points="761.93 418.19 753.93 409.01 735.93 409.01"/><line class="cls-36" x1="786.05" y1="514.28" x2="767.93" y2="531.85"/><line class="cls-37" x1="760.6" y1="523.92" x2="774.73" y2="538.05"/><path class="cls-18" d="M636.29,571.09H597.44c-12.52,0-23.27-6.86-25.61-16.34l.29-49.61A16.16,16.16,0,0,1,588,486h57.74a16.16,16.16,0,0,1,15.87,19.17l.29,49.61C659.56,564.23,648.81,571.09,636.29,571.09Z"/><path class="cls-19" d="M645.73,486h-29.6l-.2,85.13h20.35c12.52,0,23.27-6.86,25.61-16.34l-.29-49.61A16.16,16.16,0,0,0,645.73,486Z"/><circle class="cls-33" cx="617.01" cy="487.47" r="25.58"/><circle class="cls-31" cx="617.01" cy="487.47" r="22.64"/><line class="cls-41" x1="616.87" y1="466.45" x2="616.87" y2="470.2"/><line class="cls-41" x1="610.38" y1="467.53" x2="611.54" y2="471.09"/><line class="cls-41" x1="604.54" y1="470.56" x2="606.74" y2="473.59"/><line class="cls-41" x1="599.92" y1="475.24" x2="602.96" y2="477.44"/><line class="cls-41" x1="596.98" y1="481.12" x2="600.54" y2="482.28"/><line class="cls-41" x1="596" y1="487.62" x2="599.74" y2="487.62"/><line class="cls-41" x1="597.07" y1="494.11" x2="600.64" y2="492.95"/><line class="cls-41" x1="600.1" y1="499.95" x2="603.13" y2="497.74"/><line class="cls-41" x1="604.78" y1="504.57" x2="606.98" y2="501.53"/><line class="cls-41" x1="610.66" y1="507.51" x2="611.82" y2="503.94"/><line class="cls-41" x1="617.16" y1="508.49" x2="617.16" y2="504.74"/><line class="cls-41" x1="623.65" y1="507.42" x2="622.49" y2="503.85"/><line class="cls-41" x1="629.49" y1="504.39" x2="627.29" y2="501.36"/><line class="cls-41" x1="634.11" y1="499.71" x2="631.07" y2="497.5"/><line class="cls-41" x1="637.05" y1="493.83" x2="633.49" y2="492.67"/><line class="cls-41" x1="638.03" y1="487.33" x2="634.29" y2="487.33"/><line class="cls-41" x1="636.96" y1="480.84" x2="633.39" y2="482"/><line class="cls-41" x1="633.93" y1="475" x2="630.9" y2="477.2"/><line class="cls-41" x1="629.25" y1="470.38" x2="627.05" y2="473.41"/><line class="cls-41" x1="623.37" y1="467.44" x2="622.21" y2="471"/><line class="cls-42" x1="617.01" y1="487.47" x2="621.32" y2="473.59"/><path class="cls-6" d="M617,461.9V333.36a27.79,27.79,0,0,1,27.79-27.79H693"/><path class="cls-23" d="M509.9,504.12l-85.61,36.22a15.18,15.18,0,0,0-9.22,15.2h0a15.18,15.18,0,0,0,15.13,14H571.78A15.18,15.18,0,0,0,587,554.32V525.74a15.18,15.18,0,0,0-13.12-15l-56-7.64A15.18,15.18,0,0,0,509.9,504.12Z"/><path class="cls-43" d="M579.35,530.29,486.5,543.06,465.24,546l-43.1,5.93a18.7,18.7,0,0,1-6.86-.33,15.15,15.15,0,0,0-.21,3.95h0a15.18,15.18,0,0,0,15.13,14H571.78A15.18,15.18,0,0,0,587,554.32V527.47A18.58,18.58,0,0,1,579.35,530.29Z"/><path class="cls-31" d="M579.95,549.43l-88.61,8.17-20.29,1.87-41.13,3.79a16.32,16.32,0,0,1-14.8-6.54,15.17,15.17,0,0,0,15,12.77H571.68a15.18,15.18,0,0,0,15.18-15.18v-7.08A16.91,16.91,0,0,1,579.95,549.43Z"/><path class="cls-43" d="M464.84,523.18s7.13,10.09,20.2,4.45,45.32-22.86,45.32-22.86l-14.88-2a6.15,6.15,0,0,0-3.31.41Z"/><polyline class="cls-44" points="516.65 513.15 508.56 505.89 508.56 517.9"/><polyline class="cls-44" points="502.16 518.9 494.06 511.64 494.06 523.65"/><polyline class="cls-44" points="487.66 524.9 479.56 517.64 479.56 529.65"/><line class="cls-42" x1="1019.77" y1="259.14" x2="1019.77" y2="248.87"/><line class="cls-45" x1="994.16" y1="329.62" x2="1000.28" y2="319.56"/><line class="cls-45" x1="1045.33" y1="329.62" x2="1039.21" y2="319.56"/><circle class="cls-46" cx="1019.77" cy="291.98" r="32.83"/><path class="cls-14" d="M999.24,240.75h4.41a7.87,7.87,0,0,1,7.87,7.87V257a0,0,0,0,1,0,0H991.36a0,0,0,0,1,0,0v-8.38A7.87,7.87,0,0,1,999.24,240.75Z" transform="translate(-20.5 391.92) rotate(-21.92)"/><path class="cls-14" d="M1028,240.75h20.15a0,0,0,0,1,0,0v8.38a7.87,7.87,0,0,1-7.87,7.87h-4.41a7.87,7.87,0,0,1-7.87-7.87v-8.38a0,0,0,0,1,0,0Z" transform="translate(1908.18 867.35) rotate(-158.08)"/><line class="cls-47" x1="1043.86" y1="291.98" x2="1049.53" y2="291.98"/><line class="cls-47" x1="1042.68" y1="284.53" x2="1048.07" y2="282.78"/><line class="cls-47" x1="1039.26" y1="277.82" x2="1043.85" y2="274.48"/><line class="cls-47" x1="1033.93" y1="272.49" x2="1037.26" y2="267.9"/><line class="cls-47" x1="1027.21" y1="269.06" x2="1028.96" y2="263.67"/><line class="cls-47" x1="1019.77" y1="267.89" x2="1019.77" y2="262.21"/><line class="cls-47" x1="1012.32" y1="269.06" x2="1010.57" y2="263.67"/><line class="cls-47" x1="1005.61" y1="272.49" x2="1002.27" y2="267.9"/><line class="cls-47" x1="1000.28" y1="277.82" x2="995.69" y2="274.48"/><line class="cls-47" x1="996.85" y1="284.53" x2="991.46" y2="282.78"/><line class="cls-47" x1="995.68" y1="291.98" x2="990" y2="291.98"/><line class="cls-47" x1="996.85" y1="299.42" x2="991.46" y2="301.17"/><line class="cls-47" x1="1000.28" y1="306.14" x2="995.69" y2="309.47"/><line class="cls-47" x1="1005.61" y1="311.47" x2="1002.27" y2="316.06"/><line class="cls-47" x1="1012.32" y1="314.89" x2="1010.57" y2="320.28"/><line class="cls-47" x1="1019.77" y1="316.07" x2="1019.77" y2="321.74"/><line class="cls-47" x1="1027.21" y1="314.89" x2="1028.96" y2="320.28"/><line class="cls-47" x1="1033.93" y1="311.47" x2="1037.26" y2="316.06"/><line class="cls-47" x1="1039.26" y1="306.14" x2="1043.85" y2="309.47"/><line class="cls-47" x1="1042.68" y1="299.42" x2="1048.07" y2="301.17"/><polyline class="cls-42" points="1035.41 303.06 1019.77 291.98 1019.77 273.65"/><line class="cls-45" x1="1014.32" y1="247.35" x2="1024.58" y2="247.35"/><rect class="cls-23" x="663.87" y="296.5" width="10.46" height="18.13" rx="2.16" ry="2.16"/><path class="cls-48" d="M676.21,287.44H680a6.38,6.38,0,0,1,6.38,6.38v23.51A6.38,6.38,0,0,1,680,323.7h-3.79a6.38,6.38,0,0,1-6.37-6.37V293.81a6.37,6.37,0,0,1,6.37-6.37Z"/><rect class="cls-23" x="783.9" y="296.5" width="10.46" height="18.13" rx="2.16" ry="2.16"/><rect class="cls-29" x="682.57" y="280.79" width="22.61" height="49.56" rx="6.38" ry="6.38"/><path class="cls-48" d="M778.17,287.44H782a6.37,6.37,0,0,1,6.37,6.37v23.51A6.37,6.37,0,0,1,782,323.7h-3.79a6.38,6.38,0,0,1-6.38-6.38V293.81a6.37,6.37,0,0,1,6.37-6.37Z" transform="translate(1560.13 611.13) rotate(-180)"/><rect class="cls-23" x="705.18" y="300.95" width="60.22" height="9.24"/><rect class="cls-29" x="752.99" y="280.79" width="22.61" height="49.56" rx="6.37" ry="6.37" transform="translate(1528.59 611.13) rotate(-180)"/><circle class="cls-17" cx="781.78" cy="98.61" r="34.97"/><line class="cls-49" x1="781.78" y1="49.94" x2="781.78" y2="19.09"/><line class="cls-49" x1="766.74" y1="52.32" x2="757.21" y2="22.98"/><line class="cls-49" x1="753.18" y1="59.23" x2="735.04" y2="34.28"/><line class="cls-49" x1="742.41" y1="70" x2="717.45" y2="51.87"/><line class="cls-49" x1="735.5" y1="83.57" x2="706.16" y2="74.03"/><line class="cls-49" x1="733.11" y1="98.61" x2="702.27" y2="98.61"/><line class="cls-49" x1="735.5" y1="113.65" x2="706.16" y2="123.18"/><line class="cls-49" x1="742.41" y1="127.21" x2="717.45" y2="145.34"/><line class="cls-49" x1="753.18" y1="137.98" x2="735.04" y2="162.94"/><line class="cls-49" x1="766.74" y1="144.89" x2="757.21" y2="174.23"/><line class="cls-49" x1="781.78" y1="147.28" x2="781.78" y2="178.12"/><line class="cls-49" x1="796.82" y1="144.89" x2="806.35" y2="174.23"/><line class="cls-49" x1="810.39" y1="137.98" x2="828.52" y2="162.94"/><line class="cls-49" x1="821.16" y1="127.21" x2="846.11" y2="145.34"/><line class="cls-49" x1="828.07" y1="113.65" x2="857.41" y2="123.18"/><line class="cls-49" x1="830.45" y1="98.61" x2="861.3" y2="98.61"/><line class="cls-49" x1="828.07" y1="83.57" x2="857.41" y2="74.03"/><line class="cls-49" x1="821.16" y1="70" x2="846.11" y2="51.87"/><line class="cls-49" x1="810.39" y1="59.23" x2="828.52" y2="34.28"/><line class="cls-49" x1="796.82" y1="52.32" x2="806.35" y2="22.98"/><rect class="cls-23" x="1116.19" y="54.11" width="22.62" height="22.62"/><rect class="cls-23" x="1116.19" y="119.76" width="22.62" height="22.62"/><rect class="cls-29" x="1106.59" y="72.92" width="40.38" height="47.82" rx="17.06" ry="17.06"/><path class="cls-46" d="M1126.78,75.44h-7.33a10.74,10.74,0,0,0-10.74,10.74v9.1h18.06Z"/><path class="cls-50" d="M1144.84,95.28v-9.1a10.74,10.74,0,0,0-10.74-10.74h-7.33V95.28Z"/><path class="cls-51" d="M1119.45,118.23h7.33V95.28h-18.06v12.21A10.74,10.74,0,0,0,1119.45,118.23Z"/><path class="cls-52" d="M1144.84,107.49V95.28h-18.06v22.95h7.33A10.74,10.74,0,0,0,1144.84,107.49Z"/><path class="cls-46" d="M1152.89,237.51h63.06a11,11,0,0,1,11,11v51.71a23,23,0,0,1-23,23h-51a0,0,0,0,1,0,0V237.51A0,0,0,0,1,1152.89,237.51Z"/><rect class="cls-29" x="1166.56" y="250.77" width="31.06" height="1.69"/><rect class="cls-29" x="1166.56" y="265.05" width="31.06" height="1.69"/><rect class="cls-29" x="1166.56" y="279.33" width="31.06" height="1.69"/><rect class="cls-29" x="1166.56" y="293.61" width="31.06" height="1.69"/><rect class="cls-29" x="1166.56" y="307.89" width="31.06" height="1.69"/><polygon class="cls-53" points="1207.62 256.09 1204.22 250.35 1205.67 249.49 1208.29 253.91 1218.88 248.97 1219.6 250.5 1207.62 256.09"/><polygon class="cls-53" points="1207.62 269.62 1204.22 263.88 1205.67 263.02 1208.29 267.44 1218.88 262.5 1219.6 264.03 1207.62 269.62"/><polygon class="cls-53" points="1207.62 283.15 1204.22 277.41 1205.67 276.55 1208.29 280.97 1218.88 276.02 1219.6 277.56 1207.62 283.15"/><rect class="cls-54" x="1205.98" y="290.9" width="11.85" height="1.69" transform="translate(99.7 854.62) rotate(-40.38)"/><polygon class="cls-53" points="1207.62 310.2 1204.22 304.47 1205.67 303.61 1208.29 308.02 1218.88 303.08 1219.6 304.62 1207.62 310.2"/><polyline class="cls-54" points="1151.44 241.59 1151.44 258.51 1156.29 253.67 1161.13 258.51 1161.13 241.72"/><circle class="cls-23" cx="1156.7" cy="237.15" r="10.25"/><polyline class="cls-23" points="1149.48 230.27 1148.23 224.95 1152.34 228.07"/><polyline class="cls-23" points="1147.7 232.84 1144.88 228.16 1149.74 229.86"/><polyline class="cls-23" points="1146.81 235.83 1142.68 232.26 1147.83 232.37"/><polyline class="cls-23" points="1146.89 238.95 1141.85 236.83 1146.79 235.34"/><polyline class="cls-23" points="1147.93 241.9 1142.48 241.44 1146.72 238.5"/><polyline class="cls-23" points="1149.83 244.38 1144.5 245.62 1147.62 241.52"/><polyline class="cls-23" points="1152.39 246.15 1147.72 248.98 1149.42 244.11"/><polyline class="cls-23" points="1155.39 247.04 1151.81 251.18 1151.92 246.02"/><polyline class="cls-23" points="1158.51 246.96 1156.39 252 1154.9 247.06"/><polyline class="cls-23" points="1161.45 245.93 1160.99 251.37 1158.05 247.14"/><polyline class="cls-23" points="1163.93 244.03 1165.18 249.35 1161.07 246.23"/><circle class="cls-55" cx="1156.7" cy="237.15" r="8.23"/><circle class="cls-54" cx="1156.7" cy="237.15" r="6.65"/><polyline class="cls-23" points="1154.9 227.33 1157.02 222.3 1158.51 227.23"/><polyline class="cls-23" points="1151.96 228.37 1152.42 222.93 1155.36 227.16"/><polyline class="cls-23" points="1165.7 241.46 1168.53 246.13 1163.67 244.44"/><polyline class="cls-23" points="1166.6 238.47 1170.73 242.04 1165.58 241.93"/><polyline class="cls-23" points="1166.52 235.34 1171.56 237.47 1166.62 238.95"/><polyline class="cls-23" points="1165.48 232.4 1170.93 232.86 1166.69 235.8"/><polyline class="cls-23" points="1163.59 229.92 1168.91 228.68 1165.79 232.78"/><polyline class="cls-23" points="1161.01 228.15 1165.69 225.32 1163.99 230.19"/><polyline class="cls-23" points="1158.02 227.26 1161.6 223.12 1161.48 228.28"/><rect class="cls-54" x="1210.87" y="285.96" width="1.69" height="11.57" transform="translate(189.23 1004.42) rotate(-48.41)"/><path class="cls-6" d="M686.38,98.61,594.45,97.1a57.37,57.37,0,0,0-58.31,57.36V511.9"/><path class="cls-23" d="M929.91,170.92a21.38,21.38,0,0,0-1.95,2.24,21.22,21.22,0,1,0-32,27.77l0,0h0l32,32,32-32h0l0,0a21.22,21.22,0,0,0-30-30Z"/><polyline class="cls-56" points="878.38 201.2 909.29 201.2 914.98 185.17 922.78 211.32 925.48 195.3 927.42 204.15 930.79 186.57 935.43 207.1 939.71 190.24 943.02 200.36 972.44 200.36"/><line class="cls-6" x1="871.22" y1="100.15" x2="1097.98" y2="100.15"/><path class="cls-6" d="M1156,102.15h11.34a28.37,28.37,0,0,1,28.37,28.37V235.83"/><line class="cls-6" x1="1057.65" y1="306.64" x2="1146.89" y2="306.64"/><path class="cls-6" d="M769,276.15V230.23a31.42,31.42,0,0,1,31.42-31.42h71.46"/><line class="cls-57" x1="754.48" y1="410.15" x2="762.73" y2="418.4"/><path class="cls-23" d="M1155.76,569.71c3.65,1.52,10.09,2.45,13.31-5,4.93-11.37,8.65-28,7.5-42.44-.34-4.31-1.8-8.54-5.33-11.35s-10.45-1.89-10.45-1.89a23.47,23.47,0,0,0-4.14-4.27c-4.75-3.37-14.76-2.79-18.06,1.76-3.3-4.55-13.31-5.14-18.06-1.76a23.47,23.47,0,0,0-4.14,4.27s-6.85-1-10.45,1.89-5,7-5.33,11.35c-1.15,14.48,2.57,31.08,7.5,42.44,3.22,7.43,9.66,6.5,13.31,5"/><path class="cls-43" d="M1121.41,569.71c-4.63-23.48-4.75-45.47-1-51.71,2.57-4.25,1.12-7,1.12-7l0-1-4.84-1.3-.36.46s-6.85-1-10.45,1.89-5,7-5.33,11.34c-1.15,14.46,2.57,31,7.5,42.39C1111.32,572.15,1117.76,571.23,1121.41,569.71Z"/><path class="cls-58" d="M1171.24,511c-3.6-2.87-10.45-1.89-10.45-1.89a23.45,23.45,0,0,0-4.14-4.26c-4.75-3.37-14.76-2.79-18.06,1.76-3.3-4.55-13.31-5.13-18.06-1.76a23.45,23.45,0,0,0-4.14,4.26s-6.85-1-10.45,1.89c-.22.18-.41.37-.61.56,3.65-.56,9.17,1.15,15.12,6.43,0,0,4-5.83,13.89-2.59a15.57,15.57,0,0,0,8.42.43c8.36-2,12.58,1.2,15.12,6.18,2.19,4.29,2.11,29-2.1,47.69,3.65,1.52,10.09,2.44,13.31-5,4.93-11.35,8.65-27.92,7.5-42.39C1176.23,518,1174.77,513.82,1171.24,511Z"/><path class="cls-59" d="M1135.35,504.36c-.42,5.7-2.59,8.89-3.9,10.33a20.49,20.49,0,0,1,2.88.71,15.57,15.57,0,0,0,8.42.43,22.52,22.52,0,0,1,2.9-.51,57.86,57.86,0,0,1-2.92-8.28,22.44,22.44,0,0,1-.56-2.79,13.45,13.45,0,0,1,4.63-12.48c-3.18-8.7-10.34-5.07-10.34-5.07s-1.63,4-1.08,14A28.08,28.08,0,0,1,1135.35,504.36Z"/><path class="cls-25" d="M1146.44,490.92l-.12-.25c-.09-.18-.17-.36-.26-.53l-.14-.26-.27-.45-.14-.23c-.1-.16-.21-.31-.32-.45l-.11-.15q-.22-.28-.44-.52l-.1-.1-.36-.35-.16-.14-.32-.25-.17-.12-.34-.22-.14-.09a6.14,6.14,0,0,0-1-.45l-.1,0-.39-.12-.12,0-.38-.08-.1,0-.46-.06h0a7.4,7.4,0,0,0-1.42,0h0c4.73,1.42,1.9,5.54.65,13a34.53,34.53,0,0,0-.43,6.34,12.63,12.63,0,0,1-4.45,10.18,15.45,15.45,0,0,0,7.9.28,22.52,22.52,0,0,1,2.9-.51l-.12-.28-.19-.43-.13-.32-.23-.55-.15-.38-.25-.63-.16-.43-.26-.7-.17-.48-.27-.79-.16-.49c-.1-.3-.19-.61-.29-.92l-.14-.45q-.21-.7-.41-1.44a22.44,22.44,0,0,1-.56-2.79,14.06,14.06,0,0,1,.5-6.39q.13-.39.29-.78a13.11,13.11,0,0,1,1.24-2.32q.25-.38.54-.76a17.3,17.3,0,0,1,2.06-2.24C1146.68,491.48,1146.57,491.19,1146.44,490.92Z"/></g></svg>