<svg xmlns="http://www.w3.org/2000/svg" xmlns:xlink="http://www.w3.org/1999/xlink" viewBox="0 0 320 480"><defs><style>.cls-1{fill:none;stroke:#fff;stroke-miterlimit:10;stroke-width:0.5px;stroke-dasharray:2 4 0;}.cls-2{fill:#86d2db;}.cls-3{clip-path:url(#clip-path);}.cls-4{fill:#f58a73;}.cls-5{fill:#e2d1bf;}.cls-6{fill:#afa08d;}.cls-7{fill:#a8d48e;}.cls-8{fill:#70bc53;}.cls-9{fill:#8ac97b;}.cls-10{fill:#5bad46;}.cls-11{fill:#5b7f4f;}.cls-12{fill:#f4b66c;}.cls-13{fill:#f7c98b;}.cls-14{fill:#b19f53;}.cls-15{fill:#f2db6d;}.cls-16{fill:#faaa55;}.cls-17{fill:#c98548;}.cls-18{fill:#7ac363;}.cls-19{fill:#754fa0;}.cls-20{fill:#462a66;}.cls-21{fill:#bf6a5c;}.cls-22{fill:#047c3f;}.cls-23{fill:#88bd6e;}.cls-24{fill:#55a94e;}.cls-25{fill:#72aa42;}.cls-26{fill:#17353a;}.cls-27{fill:#c1dbaf;}.cls-28{fill:#f5f6fb;}.cls-29{fill:#c9d1eb;}.cls-30{fill:#af7764;}.cls-31{fill:#e086a4;}.cls-32{fill:#e2bac6;}.cls-33{fill:#5d5e5e;}.cls-34{fill:#d46250;}.cls-35{fill:#b9e4f1;}.cls-36{fill:#f9f9fa;}.cls-37{fill:#81d2e8;}.cls-38{fill:#8bd5ea;}.cls-39{fill:#6ba5b1;}.cls-40{fill:#62aa5b;}.cls-41{fill:#d35e4a;}.cls-42{fill:#e5aca3;}.cls-43{fill:#b85349;}.cls-44{fill:#098843;}</style><clipPath id="clip-path"><rect class="cls-1" x="-257.51" y="79.67" width="839.94" height="332.48" transform="translate(408.37 83.45) rotate(90)"/></clipPath></defs><title>kilter mobile website header</title><g id="Layer_1" data-name="Layer 1"><rect class="cls-2" x="-5.87" y="-11.13" width="328.48" height="492.72"/><g class="cls-3"><circle class="cls-1" cx="441.77" cy="61.58" r="337.73"/><circle class="cls-1" cx="-15.02" cy="376.69" r="337.73"/><line class="cls-1" x1="-52.81" y1="378.31" x2="417.32" y2="378.31"/><line class="cls-1" x1="104.04" y1="-210.82" x2="104.04" y2="721.28"/></g><rect class="cls-1" x="-257.51" y="79.67" width="839.94" height="332.48" transform="translate(408.37 83.45) rotate(90)"/><path class="cls-4" d="M269,453.4a.51.51,0,0,1-.51-.51v-4.07a.51.51,0,1,1,1,0v4.07A.51.51,0,0,1,269,453.4Zm0-9.16a.51.51,0,0,1-.51-.51v-4.07a.51.51,0,1,1,1,0v4.07A.51.51,0,0,1,269,444.24Zm0-9.16a.51.51,0,0,1-.51-.51V430.5a.51.51,0,0,1,1,0v4.07A.51.51,0,0,1,269,435.08Zm0-9.16a.51.51,0,0,1-.51-.51v-4.07a.51.51,0,0,1,1,0v4.07A.51.51,0,0,1,269,425.92Zm0-9.16a.51.51,0,0,1-.51-.51v-4.07a.51.51,0,0,1,1,0v4.07A.51.51,0,0,1,269,416.77Zm0-9.16a.51.51,0,0,1-.51-.51V403a.51.51,0,0,1,1,0v4.07A.51.51,0,0,1,269,407.61Zm0-9.16a.51.51,0,0,1-.51-.51v-4.07a.51.51,0,0,1,1,0v4.07A.51.51,0,0,1,269,398.45Z"/><path class="cls-5" d="M298.61,462.2h0a3.94,3.94,0,0,0-3.76,2.75l-2.69,8.45a6.44,6.44,0,0,0,6.44,6.44h0a6.44,6.44,0,0,0,6.44-6.44l-2.69-8.45A3.94,3.94,0,0,0,298.61,462.2Z"/><path class="cls-6" d="M302.37,464.94a3.94,3.94,0,0,0-3.76-2.75h-.07a3.93,3.93,0,0,1,1.11,1.73l2.69,8.45a6.44,6.44,0,0,1-6.44,6.44h0a6.47,6.47,0,0,1-.86-.06,6.41,6.41,0,0,0,3.57,1.08h0a6.44,6.44,0,0,0,6.44-6.44Z"/><path class="cls-4" d="M143.46,425.28a.51.51,0,0,1-.51-.51V420.7a.51.51,0,1,1,1,0v4.07A.51.51,0,0,1,143.46,425.28Zm0-9.16a.51.51,0,0,1-.51-.51v-4.07a.51.51,0,1,1,1,0v4.07A.51.51,0,0,1,143.46,416.13Zm0-9.16a.51.51,0,0,1-.51-.51V406a16.4,16.4,0,0,1,.42-3.68.51.51,0,1,1,1,.23A15.38,15.38,0,0,0,144,406v.47A.51.51,0,0,1,143.46,407Zm2.32-8.72a.51.51,0,0,1-.43-.77,16.39,16.39,0,0,1,2.63-3.26.51.51,0,0,1,.7.73,15.38,15.38,0,0,0-2.47,3.06A.51.51,0,0,1,145.78,398.24Zm6.72-6a.51.51,0,0,1-.22-1,16.21,16.21,0,0,1,4-1.29.51.51,0,0,1,.19,1,15.21,15.21,0,0,0-3.73,1.21A.5.5,0,0,1,152.5,392.21ZM193,390.69H188.9a.51.51,0,0,1,0-1H193a.51.51,0,1,1,0,1Zm-9.16,0h-4.07a.51.51,0,0,1,0-1h4.07a.51.51,0,1,1,0,1Zm-9.16,0h-4.07a.51.51,0,1,1,0-1h4.07a.51.51,0,1,1,0,1Zm-9.16,0h-4.07a.51.51,0,1,1,0-1h4.07a.51.51,0,1,1,0,1Z"/><path class="cls-7" d="M270.64,442.8h0a3.53,3.53,0,0,0-1.93-4.59l-.71-.36.19-.38a2.51,2.51,0,0,0-1.37-3.26h0a2.53,2.53,0,0,0-3.45.85l-.19.38h0a3.38,3.38,0,0,0-4.6,1.13l-.08.15-2.23-1.11a2,2,0,0,0-2.68.66h0a2,2,0,0,0,1.07,2.53l19.1,9.54a2,2,0,0,0,2.68-.66h0a2,2,0,0,0-1.07-2.53Z"/><path class="cls-7" d="M258.84,447.57h0a3.53,3.53,0,0,0-1.93-4.59l-.71-.36.19-.38A2.51,2.51,0,0,0,255,439h0a2.53,2.53,0,0,0-3.45.85l-.19.38h0a3.38,3.38,0,0,0-4.6,1.13l-.08.15-2.23-1.11a2,2,0,0,0-2.68.66h0a2,2,0,0,0,1.07,2.53l19.1,9.54a2,2,0,0,0,2.68-.66h0a2,2,0,0,0-1.07-2.53Z"/><path class="cls-8" d="M254.81,445.81h0a3.53,3.53,0,0,0-1.93-4.59l-.71-.36.19-.38a2.51,2.51,0,0,0-1.37-3.26h0a2.53,2.53,0,0,0-3.45.85l-.19.38h0a3.38,3.38,0,0,0-4.6,1.13l-.08.15-2.23-1.11a2,2,0,0,0-2.68.66h0a2,2,0,0,0,1.07,2.53l19.1,9.54a2,2,0,0,0,2.68-.66h0a2,2,0,0,0-1.07-2.53Z"/><path class="cls-9" d="M273.57,448.26h0a3.53,3.53,0,0,0-1.93-4.59l-.71-.36.19-.38a2.51,2.51,0,0,0-1.37-3.26h0a2.53,2.53,0,0,0-3.45.85l-.19.38h0a3.38,3.38,0,0,0-4.6,1.13l-.08.15-2.23-1.11a2,2,0,0,0-2.68.66h0a2,2,0,0,0,1.07,2.53l19.1,9.54a2,2,0,0,0,2.68-.66h0a2,2,0,0,0-1.07-2.53Z"/><path class="cls-9" d="M269,452.69h0a3.53,3.53,0,0,0-1.93-4.59l-.71-.36.19-.38a2.51,2.51,0,0,0-1.37-3.26h0a2.53,2.53,0,0,0-3.45.85l-.19.38h0a3.38,3.38,0,0,0-4.6,1.13l-.08.15-2.23-1.11a2,2,0,0,0-2.68.66h0a2,2,0,0,0,1.07,2.53l19.1,9.54a2,2,0,0,0,2.68-.66h0a2,2,0,0,0-1.07-2.53Z"/><path class="cls-8" d="M263,443h0a3.53,3.53,0,0,0-1.93-4.59l-.71-.36.19-.38a2.51,2.51,0,0,0-1.37-3.26h0a2.53,2.53,0,0,0-3.45.85l-.19.38h0a3.38,3.38,0,0,0-4.6,1.13l-.08.15-2.23-1.11a2,2,0,0,0-2.68.66h0A2,2,0,0,0,247,439l19.1,9.54a2,2,0,0,0,2.68-.66h0a2,2,0,0,0-1.07-2.53Z"/><path class="cls-8" d="M277.37,457.08h0a3.53,3.53,0,0,0-1.93-4.59l-.71-.36.19-.38a2.51,2.51,0,0,0-1.37-3.26h0a2.53,2.53,0,0,0-3.45.85l-.19.38h0a3.38,3.38,0,0,0-4.6,1.13l-.08.15L263,449.9a2,2,0,0,0-2.68.66h0a2,2,0,0,0,1.07,2.53l19.1,9.54a2,2,0,0,0,2.68-.66h0a2,2,0,0,0-1.07-2.53Z"/><path class="cls-7" d="M259,466.28h0a3.57,3.57,0,0,1-4.86,1.19l-.71-.36-.19.38a2.54,2.54,0,0,1-3.45.84h0a2.51,2.51,0,0,1-1.36-3.26l.19-.38h0a3.34,3.34,0,0,1-1.82-4.35l.08-.15-2.23-1.12a2,2,0,0,1-1.06-2.54h0a2,2,0,0,1,2.68-.65l19.08,9.58a2,2,0,0,1,1.06,2.54h0a2,2,0,0,1-2.68.65Z"/><path class="cls-7" d="M255.82,454h0a3.57,3.57,0,0,1-4.86,1.19l-.71-.36-.19.38a2.54,2.54,0,0,1-3.45.84h0a2.51,2.51,0,0,1-1.36-3.26l.19-.38h0a3.34,3.34,0,0,1-1.82-4.35l.08-.15-2.23-1.12a2,2,0,0,1-1.06-2.54h0a2,2,0,0,1,2.68-.65l19.08,9.58a2,2,0,0,1,1.06,2.54h0a2,2,0,0,1-2.68.65Z"/><path class="cls-10" d="M252,451.84h0a3.57,3.57,0,0,1-4.86,1.19l-.71-.36-.19.38a2.54,2.54,0,0,1-3.45.84h0a2.51,2.51,0,0,1-1.36-3.26l.19-.38h0a3.34,3.34,0,0,1-1.82-4.35l.08-.15-2.23-1.12a2,2,0,0,1-1.06-2.54h0a2,2,0,0,1,2.68-.65L258.35,451a2,2,0,0,1,1.06,2.54h0a2,2,0,0,1-2.68.65Z"/><path class="cls-9" d="M265.14,465.37h0a3.57,3.57,0,0,1-4.86,1.19l-.71-.36-.19.38a2.54,2.54,0,0,1-3.45.84h0a2.51,2.51,0,0,1-1.36-3.26l.19-.38h0a3.34,3.34,0,0,1-1.82-4.35l.08-.15-2.23-1.12a2,2,0,0,1-1.06-2.54h0a2,2,0,0,1,2.68-.65l19.08,9.58a2,2,0,0,1,1.06,2.54h0a2,2,0,0,1-2.68.65Z"/><path class="cls-9" d="M266,459.05h0a3.57,3.57,0,0,1-4.86,1.19l-.71-.36-.19.38a2.54,2.54,0,0,1-3.45.84h0a2.51,2.51,0,0,1-1.36-3.26l.19-.38h0a3.34,3.34,0,0,1-1.82-4.35l.08-.15-2.23-1.12a2,2,0,0,1-1.06-2.54h0a2,2,0,0,1,2.68-.65l19.08,9.58a2,2,0,0,1,1.06,2.54h0a2,2,0,0,1-2.68.65Z"/><path class="cls-10" d="M254.6,460.07h0a3.57,3.57,0,0,1-4.86,1.19l-.71-.36-.19.38a2.54,2.54,0,0,1-3.45.84h0a2.51,2.51,0,0,1-1.36-3.26l.19-.38h0a3.34,3.34,0,0,1-1.82-4.35l.08-.15-2.23-1.12a2,2,0,0,1-1.06-2.54h0a2,2,0,0,1,2.68-.65l19.08,9.58a2,2,0,0,1,1.06,2.54h0a2,2,0,0,1-2.68.65Z"/><path class="cls-10" d="M274.53,463.16h0a3.57,3.57,0,0,1-4.86,1.19L269,464l-.19.38a2.54,2.54,0,0,1-3.45.84h0a2.51,2.51,0,0,1-1.36-3.26l.19-.38h0a3.34,3.34,0,0,1-1.82-4.35l.08-.15-2.23-1.12a2,2,0,0,1-1.06-2.54h0a2,2,0,0,1,2.68-.65l19.08,9.58a2,2,0,0,1,1.06,2.54h0a2,2,0,0,1-2.68.65Z"/><path class="cls-11" d="M267.16,469.94h0a3.57,3.57,0,0,1-4.86,1.19l-.71-.36-.19.38a2.54,2.54,0,0,1-3.45.84h0a2.51,2.51,0,0,1-1.36-3.26l.19-.38h0A3.34,3.34,0,0,1,255,464l.08-.15-2.23-1.12a2,2,0,0,1-1.06-2.54h0a2,2,0,0,1,2.68-.65l19.08,9.58a2,2,0,0,1,1.06,2.54h0a2,2,0,0,1-2.68.65Z"/><path class="cls-10" d="M279.19,469h0a3.57,3.57,0,0,1-4.86,1.19l-.71-.36-.19.38A2.54,2.54,0,0,1,270,471h0a2.51,2.51,0,0,1-1.36-3.26l.19-.38h0A3.34,3.34,0,0,1,267,463l.08-.15-2.23-1.12a2,2,0,0,1-1.06-2.54h0a2,2,0,0,1,2.68-.65l19.08,9.58a2,2,0,0,1,1.06,2.54h0a2,2,0,0,1-2.68.65Z"/><path class="cls-9" d="M262.63,468.16h0a3.57,3.57,0,0,1-4.86,1.19l-.71-.36-.19.38a2.54,2.54,0,0,1-3.45.84h0A2.51,2.51,0,0,1,252,467l.19-.38h0a3.34,3.34,0,0,1-1.82-4.35l.08-.15L248.27,461a2,2,0,0,1-1.06-2.54h0a2,2,0,0,1,2.68-.65L269,467.35a2,2,0,0,1,1.06,2.54h0a2,2,0,0,1-2.68.65Z"/><path class="cls-7" d="M173.22,458.9h0a2.7,2.7,0,0,0-1.48-3.51l-.55-.27.15-.29a1.92,1.92,0,0,0-1-2.49h0a1.94,1.94,0,0,0-2.64.65l-.15.29h0a2.58,2.58,0,0,0-3.51.87l-.06.12-1.71-.85a1.51,1.51,0,0,0-2.05.51h0a1.49,1.49,0,0,0,.82,1.94l14.61,7.3a1.51,1.51,0,0,0,2.05-.51h0a1.49,1.49,0,0,0-.82-1.94Z"/><path class="cls-7" d="M164.2,462.55h0a2.7,2.7,0,0,0-1.48-3.51l-.55-.27.15-.29a1.92,1.92,0,0,0-1-2.49h0a1.94,1.94,0,0,0-2.64.65l-.15.29h0a2.58,2.58,0,0,0-3.51.87l-.06.12-1.71-.85a1.51,1.51,0,0,0-2.05.51h0a1.49,1.49,0,0,0,.82,1.94l14.61,7.3a1.51,1.51,0,0,0,2.05-.51h0a1.49,1.49,0,0,0-.82-1.94Z"/><path class="cls-8" d="M161.12,461.2h0a2.7,2.7,0,0,0-1.48-3.51l-.55-.27.15-.29a1.92,1.92,0,0,0-1-2.49h0a1.94,1.94,0,0,0-2.64.65l-.15.29h0a2.58,2.58,0,0,0-3.51.87l-.06.12-1.71-.85a1.51,1.51,0,0,0-2.05.51h0a1.49,1.49,0,0,0,.82,1.94l14.61,7.3a1.51,1.51,0,0,0,2.05-.51h0a1.49,1.49,0,0,0-.82-1.94Z"/><path class="cls-9" d="M175.46,463.08h0a2.7,2.7,0,0,0-1.48-3.51l-.55-.27.15-.29a1.92,1.92,0,0,0-1-2.49h0a1.94,1.94,0,0,0-2.64.65l-.15.29h0a2.58,2.58,0,0,0-3.51.87l-.06.12-1.71-.85a1.51,1.51,0,0,0-2.05.51h0a1.49,1.49,0,0,0,.82,1.94l14.61,7.3a1.51,1.51,0,0,0,2.05-.51h0a1.49,1.49,0,0,0-.82-1.94Z"/><path class="cls-9" d="M171.94,466.47h0a2.7,2.7,0,0,0-1.48-3.51l-.55-.27.15-.29a1.92,1.92,0,0,0-1-2.49h0a1.94,1.94,0,0,0-2.64.65l-.15.29h0a2.58,2.58,0,0,0-3.51.87l-.06.12L161,461a1.51,1.51,0,0,0-2.05.51h0a1.49,1.49,0,0,0,.82,1.94l14.61,7.3a1.51,1.51,0,0,0,2.05-.51h0a1.49,1.49,0,0,0-.82-1.94Z"/><path class="cls-8" d="M167.39,459h0a2.7,2.7,0,0,0-1.48-3.51l-.55-.27.15-.29a1.92,1.92,0,0,0-1-2.49h0a1.94,1.94,0,0,0-2.64.65l-.15.29h0a2.58,2.58,0,0,0-3.51.87l-.06.12-1.71-.85a1.51,1.51,0,0,0-2.05.51h0a1.49,1.49,0,0,0,.82,1.94l14.61,7.3a1.51,1.51,0,0,0,2.05-.51h0a1.49,1.49,0,0,0-.82-1.94Z"/><path class="cls-8" d="M178.37,469.82h0a2.7,2.7,0,0,0-1.48-3.51l-.55-.27.15-.29a1.92,1.92,0,0,0-1-2.49h0a1.94,1.94,0,0,0-2.64.65l-.15.29h0a2.58,2.58,0,0,0-3.51.87l-.06.12-1.71-.85a1.51,1.51,0,0,0-2.05.51h0a1.49,1.49,0,0,0,.82,1.94l14.61,7.3a1.51,1.51,0,0,0,2.05-.51h0a1.49,1.49,0,0,0-.82-1.94Z"/><path class="cls-7" d="M164.3,476.86h0a2.73,2.73,0,0,1-3.71.91l-.55-.27-.15.29a1.94,1.94,0,0,1-2.64.64h0a1.92,1.92,0,0,1-1-2.49l.15-.29h0a2.55,2.55,0,0,1-1.39-3.32l.06-.12-1.7-.86a1.49,1.49,0,0,1-.81-1.94h0a1.51,1.51,0,0,1,2.05-.5l14.59,7.33a1.49,1.49,0,0,1,.81,1.94h0a1.51,1.51,0,0,1-2.05.5Z"/><path class="cls-7" d="M161.89,467.47h0a2.73,2.73,0,0,1-3.71.91l-.55-.27-.15.29a1.94,1.94,0,0,1-2.64.64h0a1.92,1.92,0,0,1-1-2.49l.15-.29h0a2.55,2.55,0,0,1-1.39-3.32l.06-.12-1.7-.86a1.49,1.49,0,0,1-.81-1.94h0a1.51,1.51,0,0,1,2.05-.5l14.59,7.33a1.49,1.49,0,0,1,.81,1.94h0a1.51,1.51,0,0,1-2.05.5Z"/><path class="cls-10" d="M159,465.81h0a2.73,2.73,0,0,1-3.71.91l-.55-.27-.15.29a1.94,1.94,0,0,1-2.64.64h0a1.92,1.92,0,0,1-1-2.49l.15-.29h0a2.55,2.55,0,0,1-1.39-3.32l.06-.12-1.7-.86a1.49,1.49,0,0,1-.81-1.94h0a1.51,1.51,0,0,1,2.05-.5l14.59,7.33a1.49,1.49,0,0,1,.81,1.94h0a1.51,1.51,0,0,1-2.05.5Z"/><path class="cls-9" d="M169,476.16h0a2.73,2.73,0,0,1-3.71.91l-.55-.27-.15.29a1.94,1.94,0,0,1-2.64.64h0a1.92,1.92,0,0,1-1-2.49l.15-.29h0a2.55,2.55,0,0,1-1.39-3.32l.06-.12-1.7-.86a1.49,1.49,0,0,1-.81-1.94h0a1.51,1.51,0,0,1,2.05-.5l14.59,7.33a1.49,1.49,0,0,1,.81,1.94h0a1.51,1.51,0,0,1-2.05.5Z"/><path class="cls-9" d="M169.66,471.33h0a2.73,2.73,0,0,1-3.71.91l-.55-.27-.15.29a1.94,1.94,0,0,1-2.64.64h0a1.92,1.92,0,0,1-1-2.49l.15-.29h0a2.55,2.55,0,0,1-1.39-3.32l.06-.12-1.7-.86a1.49,1.49,0,0,1-.81-1.94h0a1.51,1.51,0,0,1,2.05-.5l14.59,7.33a1.49,1.49,0,0,1,.81,1.94h0a1.51,1.51,0,0,1-2.05.5Z"/><path class="cls-10" d="M161,472.11h0a2.73,2.73,0,0,1-3.71.91l-.55-.27-.15.29a1.94,1.94,0,0,1-2.64.64h0a1.92,1.92,0,0,1-1-2.49l.15-.29h0a2.55,2.55,0,0,1-1.39-3.32l.06-.12-1.7-.86a1.49,1.49,0,0,1-.81-1.94h0a1.51,1.51,0,0,1,2.05-.5l14.59,7.33a1.49,1.49,0,0,1,.81,1.94h0a1.51,1.51,0,0,1-2.05.5Z"/><path class="cls-10" d="M176.2,474.47h0a2.73,2.73,0,0,1-3.71.91l-.55-.27-.15.29a1.94,1.94,0,0,1-2.64.64h0a1.92,1.92,0,0,1-1-2.49l.15-.29h0a2.55,2.55,0,0,1-1.39-3.32l.06-.12-1.7-.86a1.49,1.49,0,0,1-.81-1.94h0a1.51,1.51,0,0,1,2.05-.5l14.59,7.33a1.49,1.49,0,0,1,.81,1.94h0a1.51,1.51,0,0,1-2.05.5Z"/><path class="cls-11" d="M170.56,479.66h0a2.73,2.73,0,0,1-3.71.91l-.55-.27-.15.29a1.94,1.94,0,0,1-2.64.64h0a1.92,1.92,0,0,1-1-2.49l.15-.29h0a2.55,2.55,0,0,1-1.39-3.32l.06-.12-1.7-.86a1.49,1.49,0,0,1-.81-1.94h0a1.51,1.51,0,0,1,2.05-.5L175.41,479a1.49,1.49,0,0,1,.81,1.94h0a1.51,1.51,0,0,1-2.05.5Z"/><path class="cls-10" d="M179.76,478.92h0a2.73,2.73,0,0,1-3.71.91l-.55-.27-.15.29a1.94,1.94,0,0,1-2.64.64h0a1.92,1.92,0,0,1-1-2.49l.15-.29h0a2.55,2.55,0,0,1-1.39-3.32l.06-.12-1.7-.86a1.49,1.49,0,0,1-.81-1.94h0A1.51,1.51,0,0,1,170,471l14.59,7.33a1.49,1.49,0,0,1,.81,1.94h0a1.51,1.51,0,0,1-2.05.5Z"/><path class="cls-9" d="M167.09,478.3h0a2.73,2.73,0,0,1-3.71.91l-.55-.27-.15.29a1.94,1.94,0,0,1-2.64.64h0a1.92,1.92,0,0,1-1-2.49l.15-.29h0a2.55,2.55,0,0,1-1.39-3.32l.06-.12-1.7-.86a1.49,1.49,0,0,1-.81-1.94h0a1.51,1.51,0,0,1,2.05-.5l14.59,7.33a1.49,1.49,0,0,1,.81,1.94h0a1.51,1.51,0,0,1-2.05.5Z"/><path class="cls-11" d="M291.23,430.07v-6.36h-7v6.36a8.16,8.16,0,0,1-3.42,6.55,7.11,7.11,0,0,0-2.91,5.74v33.22a4.84,4.84,0,0,0,4.84,4.84h10a4.84,4.84,0,0,0,4.84-4.84V442.36a7.11,7.11,0,0,0-2.91-5.74A8.16,8.16,0,0,1,291.23,430.07Z"/><rect class="cls-12" x="283.54" y="418.7" width="8.37" height="5" rx="2.5" ry="2.5"/><rect class="cls-9" x="280.15" y="448.63" width="1.87" height="24.59" rx="0.93" ry="0.93"/><rect class="cls-9" x="280.15" y="441.34" width="1.87" height="3.05" rx="0.93" ry="0.93"/><path class="cls-9" d="M296.4,438.46a7.16,7.16,0,0,0-1.74-1.84,8.16,8.16,0,0,1-3.42-6.55v-6.36h-7v6.36a8.16,8.16,0,0,1-3.42,6.55,7.16,7.16,0,0,0-1.74,1.84Z"/><path class="cls-12" d="M242.06,480.36c-9,0-16.23-6.56-16.23-14.62s7.28-14.62,16.23-14.62h24.39c9,0,16.23,6.56,16.23,14.62s-7.28,14.62-16.23,14.62Z"/><rect class="cls-13" x="227.7" y="452.81" width="53.09" height="25.85" rx="12.93" ry="12.93"/><circle class="cls-12" cx="264.72" cy="462.66" r="1.7"/><circle class="cls-12" cx="271.73" cy="469.89" r="0.57"/><circle class="cls-12" cx="261.56" cy="469.89" r="2.15"/><circle class="cls-12" cx="255.34" cy="460.29" r="0.68"/><circle class="cls-12" cx="245.95" cy="466.28" r="1.02"/><circle class="cls-12" cx="243.24" cy="459.04" r="0.57"/><circle class="cls-12" cx="237.31" cy="467.58" r="0.28"/><circle class="cls-12" cx="243.24" cy="475.55" r="0.57"/><circle class="cls-12" cx="249.57" cy="472.61" r="1.7"/><circle class="cls-12" cx="251.72" cy="464.58" r="1.13"/><circle class="cls-12" cx="264.21" cy="454.69" r="0.51"/><circle class="cls-12" cx="271.33" cy="463.62" r="0.4"/><circle class="cls-12" cx="250.82" cy="454.41" r="0.45"/><rect class="cls-14" x="251.85" y="457.62" width="3.14" height="2.28" rx="1.14" ry="1.14" transform="translate(398.22 -44.94) rotate(44.95)"/><rect class="cls-14" x="253.24" y="469.84" width="3.14" height="2.28" rx="1.14" ry="1.14" transform="translate(407.26 -42.35) rotate(44.95)"/><rect class="cls-15" x="294.35" y="461.4" width="2.71" height="5.88" transform="translate(393.99 -77.32) rotate(42.77)"/><path class="cls-15" d="M294.48,466.9h0c-1.07-2.31-4-3.27-6.53-2.63a32,32,0,0,1-26.76-5.19c-2.15-1.56-5.18-1.75-7,0h0c-1.85,1.73-1.3,5.31,1.6,7.43a41.17,41.17,0,0,0,34.48,6.68C293.7,472.31,295.55,469.2,294.48,466.9Z"/><path class="cls-14" d="M294.48,466.9h0a36.55,36.55,0,0,1-40.33-7.82h0c-1.86,1.72-1.09,5.54,2.16,7.84a41.17,41.17,0,0,0,33.25,6.44C293.41,472.45,295.56,469.19,294.48,466.9Z"/><path class="cls-15" d="M295.64,466.76h0c-1.72-1.88-4.76-1.93-7-.54a32,32,0,0,1-27.08,3.12c-2.52-.84-5.47-.1-6.71,2.12h0c-1.25,2.21.36,5.46,3.76,6.61a41.17,41.17,0,0,0,34.89-4C296.52,472.16,297.35,468.63,295.64,466.76Z"/><path class="cls-14" d="M295.64,466.76h0a36.55,36.55,0,0,1-40.81,4.7h0c-1.25,2.2.63,5.61,4.42,6.82a41.17,41.17,0,0,0,33.64-3.88C296.3,472.37,297.36,468.62,295.64,466.76Z"/><rect class="cls-15" x="294.22" y="459.71" width="7.86" height="2.71" rx="1.36" ry="1.36" transform="translate(429.03 -72.17) rotate(46.68)"/><rect class="cls-14" x="297.51" y="461.18" width="4.04" height="2.71" rx="1.36" ry="1.36" transform="translate(430.53 -72.72) rotate(46.68)"/><rect class="cls-7" x="177.02" y="440.13" width="9.48" height="2.12" transform="translate(180.78 918.35) rotate(-157.49)"/><path class="cls-7" d="M183.62,428.59h0a2.18,2.18,0,0,0-2.85-1.18l-.42.18-.11-.26a1.55,1.55,0,0,0-2-.84h0a1.55,1.55,0,0,0-.84,2l.11.26h0a2.06,2.06,0,0,0-1.12,2.7l0,.11-1.32.55a1.2,1.2,0,0,0-.65,1.57h0a1.2,1.2,0,0,0,1.57.65l11.34-4.7a1.2,1.2,0,0,0,.65-1.57h0a1.2,1.2,0,0,0-1.57-.65Z"/><path class="cls-7" d="M181.63,436.36h0a2.18,2.18,0,0,0-2.85-1.18l-.42.18-.11-.26a1.55,1.55,0,0,0-2-.84h0a1.55,1.55,0,0,0-.84,2l.11.26h0a2.06,2.06,0,0,0-1.12,2.7l0,.11-1.32.55a1.2,1.2,0,0,0-.65,1.57h0a1.2,1.2,0,0,0,1.57.65l11.34-4.7a1.2,1.2,0,0,0,.65-1.57h0a1.2,1.2,0,0,0-1.57-.65Z"/><path class="cls-11" d="M179.36,437.47h0a2.18,2.18,0,0,0-2.85-1.18l-.42.18-.11-.26a1.55,1.55,0,0,0-2-.84h0a1.55,1.55,0,0,0-.84,2l.11.26h0a2.06,2.06,0,0,0-1.12,2.7l0,.11-1.32.55a1.2,1.2,0,0,0-.65,1.57h0a1.2,1.2,0,0,0,1.57.65l11.34-4.7a1.2,1.2,0,0,0,.65-1.57h0a1.2,1.2,0,0,0-1.57-.65Z"/><path class="cls-9" d="M187.24,429.69h0a2.18,2.18,0,0,0-2.85-1.18l-.42.18-.11-.26a1.55,1.55,0,0,0-2-.84h0a1.55,1.55,0,0,0-.84,2l.11.26h0a2.06,2.06,0,0,0-1.12,2.7l0,.11-1.32.55a1.2,1.2,0,0,0-.65,1.57h0a1.2,1.2,0,0,0,1.57.65l11.34-4.7a1.2,1.2,0,0,0,.65-1.57h0a1.2,1.2,0,0,0-1.57-.65Z"/><path class="cls-9" d="M187.67,433.9h0a2.18,2.18,0,0,0-2.85-1.18l-.42.18-.11-.26a1.55,1.55,0,0,0-2-.84h0a1.55,1.55,0,0,0-.84,2l.11.26h0a2.06,2.06,0,0,0-1.12,2.7l0,.11-1.32.55a1.2,1.2,0,0,0-.65,1.57h0a1.2,1.2,0,0,0,1.57.65L191.4,435a1.2,1.2,0,0,0,.65-1.57h0a1.2,1.2,0,0,0-1.57-.65Z"/><path class="cls-11" d="M181,432.29h0a2.18,2.18,0,0,0-2.85-1.18l-.42.18-.11-.26a1.55,1.55,0,0,0-2-.84h0a1.55,1.55,0,0,0-.84,2l.11.26h0a2.06,2.06,0,0,0-1.12,2.7l0,.11-1.32.55a1.2,1.2,0,0,0-.65,1.57h0a1.2,1.2,0,0,0,1.57.65l11.34-4.7a1.2,1.2,0,0,0,.65-1.57h0a1.2,1.2,0,0,0-1.57-.65Z"/><path class="cls-11" d="M192.75,431.92h0a2.18,2.18,0,0,0-2.85-1.18l-.42.18-.11-.26a1.55,1.55,0,0,0-2-.84h0a1.55,1.55,0,0,0-.84,2l.11.26h0a2.06,2.06,0,0,0-1.12,2.7l0,.11-1.32.55a1.2,1.2,0,0,0-.65,1.57h0a1.2,1.2,0,0,0,1.57.65l11.34-4.7a1.2,1.2,0,0,0,.65-1.57h0a1.2,1.2,0,0,0-1.57-.65Z"/><path class="cls-9" d="M189.59,434.16h0a1.35,1.35,0,0,0-1.83.55l-3.66,6.83a1.35,1.35,0,0,0-.06,1.15l2.46,6a1.35,1.35,0,0,0,1.76.73l.13-.05a1.35,1.35,0,0,0,.73-1.76l-2-4.88a1.35,1.35,0,0,1,.06-1.15l3-5.55A1.35,1.35,0,0,0,189.59,434.16Z"/><path class="cls-4" d="M238.94,424.15a.51.51,0,0,1-.51-.51v-4.07a.51.51,0,0,1,1,0v4.07A.51.51,0,0,1,238.94,424.15Zm0-9.16a.51.51,0,0,1-.51-.51v-4.07a.51.51,0,0,1,1,0v4.07A.51.51,0,0,1,238.94,415Zm0-9.16a.51.51,0,0,1-.51-.51v-4.07a.51.51,0,0,1,1,0v4.07A.51.51,0,0,1,238.94,405.83Zm0-9.16a.51.51,0,0,1-.51-.51v-4.07a.51.51,0,0,1,1,0v4.07A.51.51,0,0,1,238.94,396.67Zm0-9.16a.51.51,0,0,1-.51-.51v-4.07a.51.51,0,0,1,1,0V387A.51.51,0,0,1,238.94,387.52Zm0-9.16a.51.51,0,0,1-.51-.51v-4.07a.51.51,0,0,1,1,0v4.07A.51.51,0,0,1,238.94,378.36Zm0-9.16a.51.51,0,0,1-.51-.51v-1.92a12.07,12.07,0,0,0-.18-2.06.51.51,0,0,1,1-.17,13.06,13.06,0,0,1,.19,2.23v1.92A.51.51,0,0,1,238.94,369.2Zm-2-8.75a.51.51,0,0,1-.42-.23,12,12,0,0,0-2.64-2.85.51.51,0,1,1,.63-.8,13,13,0,0,1,2.86,3.1.51.51,0,0,1-.42.79Zm-7.28-5.21-.13,0a12,12,0,0,0-3-.38h-.93a.51.51,0,0,1,0-1h.93a13,13,0,0,1,3.23.41.51.51,0,0,1-.13,1Zm-9.12-.39h-4.07a.51.51,0,0,1,0-1h4.07a.51.51,0,1,1,0,1Zm-9.16,0h-4.07a.51.51,0,0,1,0-1h4.07a.51.51,0,1,1,0,1Zm-9.16,0H198.1a.51.51,0,0,1,0-1h4.07a.51.51,0,1,1,0,1Zm-9.16,0h-4.07a.51.51,0,1,1,0-1H193a.51.51,0,1,1,0,1Zm-9.16,0h-4.07a.51.51,0,1,1,0-1h4.07a.51.51,0,1,1,0,1Z"/><rect class="cls-16" x="190.11" y="431.11" width="20.98" height="19.9" rx="9.95" ry="9.95" transform="translate(-142.72 99.14) rotate(-20.66)"/><path class="cls-17" d="M204.11,450.37l.51-.19a10,10,0,0,0,5.8-12.82h0a10,10,0,0,0-12.82-5.8l-.51.19Z"/><rect class="cls-11" x="196.37" y="427.45" width="2.44" height="7.49" transform="translate(-122.44 81.12) rotate(-17.81)"/><rect class="cls-18" x="191.53" y="425.32" width="8.24" height="2.79" rx="1.39" ry="1.39" transform="translate(-145.18 103.91) rotate(-21.92)"/><rect class="cls-11" x="195.21" y="424.59" width="4.48" height="2.79" rx="1.39" ry="1.39" transform="translate(-144.77 104.54) rotate(-21.92)"/><path class="cls-18" d="M197.34,431.34h0a0,0,0,0,1,0,0v1.76a4.39,4.39,0,0,1-4.39,4.39h0a0,0,0,0,1,0,0v-1.76A4.39,4.39,0,0,1,197.34,431.34Z" transform="translate(159.08 -40.45) rotate(19.85)"/><path class="cls-11" d="M198.25,432.27l-.95,2.63a3.35,3.35,0,0,1-4.28,2l-1-.35"/><path class="cls-18" d="M201.58,432.2h0a0,0,0,0,1,0,0V434a4.39,4.39,0,0,1-4.39,4.39h0a0,0,0,0,1,0,0v-1.76A4.39,4.39,0,0,1,201.58,432.2Z" transform="translate(-277.83 396.83) rotate(-60.78)"/><path class="cls-11" d="M197.78,431.85l2.44,1.37a3.35,3.35,0,0,1,1.29,4.55l-.51.91"/><rect class="cls-11" x="236.34" y="414.13" width="3.82" height="11.72" transform="translate(100.71 -42.87) rotate(13.02)"/><path class="cls-19" d="M237.26,421.75h0a11.21,11.21,0,0,0-12.49,8.1,116.81,116.81,0,0,1-12.25,28A11.21,11.21,0,0,0,215,472.54h0c4.5,3.42,11.5,1.76,15-4.07a137.31,137.31,0,0,0,14.4-32.94C246.36,429,242.82,422.74,237.26,421.75Z"/><path class="cls-20" d="M237.14,421.73h0c5.57,1,9.1,7.24,7.21,13.77A137.19,137.19,0,0,1,230,468.41c-3.51,5.82-10.51,7.47-15,4.06h0A126.94,126.94,0,0,0,237.14,421.73Z"/><rect class="cls-18" x="232.79" y="410.22" width="12.9" height="4.36" rx="2.18" ry="2.18" transform="translate(66.72 -32.06) rotate(8.91)"/><rect class="cls-11" x="238.75" y="410.69" width="7.02" height="4.36" rx="2.18" ry="2.18" transform="matrix(0.99, 0.15, -0.15, 0.99, 66.83, -32.52)"/><path class="cls-18" d="M235.82,417.55h0a0,0,0,0,1,0,0v2.75a6.87,6.87,0,0,1-6.87,6.87h0a0,0,0,0,1,0,0v-2.75A6.87,6.87,0,0,1,235.82,417.55Z" transform="translate(411.85 -25.05) rotate(50.68)"/><path class="cls-11" d="M238.28,422l-3.39,2.78a5.24,5.24,0,0,1-7.38-.73l-1-1.26"/><path class="cls-18" d="M245.8,420.31h0a0,0,0,0,1,0,0v2.75a6.87,6.87,0,0,1-6.87,6.87h0a0,0,0,0,1,0,0v-2.75A6.87,6.87,0,0,1,245.8,420.31Z" transform="translate(-207.9 616.76) rotate(-83.37)"/><path class="cls-11" d="M238,421.15l4.35.51a5.24,5.24,0,0,1,4.6,5.81l-.19,1.62"/><path class="cls-18" d="M240.84,422.1h0a0,0,0,0,1,0,0v2.75a6.87,6.87,0,0,1-6.87,6.87h0a0,0,0,0,1,0,0V429A6.87,6.87,0,0,1,240.84,422.1Z" transform="translate(-181.45 175.56) rotate(-29.95)"/><path class="cls-11" d="M238,421l2.19,3.8a5.24,5.24,0,0,1-1.92,7.16l-1.41.82"/><rect class="cls-7" x="213.54" y="425.57" width="6.16" height="1.38" transform="translate(-50.85 822.59) rotate(-119.05)"/><path class="cls-7" d="M221.65,424.24h0a1.42,1.42,0,0,0-1-1.73l-.29-.08,0-.18a1,1,0,0,0-.72-1.23h0a1,1,0,0,0-1.23.72l0,.18h0a1.34,1.34,0,0,0-1.64,1l0,.07-.9-.24a.78.78,0,0,0-1,.56h0a.78.78,0,0,0,.56,1l7.72,2a.78.78,0,0,0,1-.56h0a.78.78,0,0,0-.56-1Z"/><path class="cls-9" d="M223.08,426.23h0a1.42,1.42,0,0,0-1-1.73l-.29-.08,0-.18a1,1,0,0,0-.72-1.23h0a1,1,0,0,0-1.23.72l0,.18h0a1.34,1.34,0,0,0-1.64,1l0,.07-.9-.24a.78.78,0,0,0-1,.56h0a.78.78,0,0,0,.56,1l7.72,2a.78.78,0,0,0,1-.56h0a.78.78,0,0,0-.56-1Z"/><path class="cls-11" d="M218.82,425.12h0a1.42,1.42,0,0,0-1-1.73l-.29-.08,0-.18a1,1,0,0,0-.72-1.23h0a1,1,0,0,0-1.23.72l0,.18h0a1.34,1.34,0,0,0-1.64,1l0,.07-.9-.24a.78.78,0,0,0-1,.56h0a.78.78,0,0,0,.56,1l7.72,2a.78.78,0,0,0,1-.56h0a.78.78,0,0,0-.56-1Z"/><path class="cls-9" d="M223.45,425.84h0a.88.88,0,0,0-1.15-.46l-4.63,2a.88.88,0,0,0-.5.56L216,432a.88.88,0,0,0,.6,1.08l.09,0a.88.88,0,0,0,1.08-.6l.94-3.3a.88.88,0,0,1,.5-.56L223,427A.88.88,0,0,0,223.45,425.84Z"/><path class="cls-4" d="M217.6,430.62h0a6,6,0,0,0-7.36,4.7l-5.31,29.39a3.41,3.41,0,0,0,2.5,3.91h0a3.41,3.41,0,0,0,4.07-2.14l10.18-28.08A6,6,0,0,0,217.6,430.62Z"/><path class="cls-21" d="M217.6,430.62l-9.94,38.05a3.41,3.41,0,0,0,3.84-2.19l10.18-28.08A6,6,0,0,0,217.6,430.62Z"/><polygon class="cls-22" points="166.64 480.89 165.85 446.85 162.03 446.85 161.24 480.89 166.64 480.89"/><path class="cls-23" d="M161.85,453.66H164c0-2-2.75-2.82-2.75-2.82Z"/><path class="cls-24" d="M166.17,458.49h-2.22c0-2.14,2.88-3,2.88-3Z"/><path class="cls-25" d="M161.57,463.57h2.31c0-2.23-3-3.07-3-3.07Z"/><path class="cls-23" d="M166.48,470H164c0-2.33,3.13-3.21,3.13-3.21Z"/><polygon class="cls-22" points="157.47 480.89 156.97 457.61 153.16 457.61 152.66 480.89 157.47 480.89"/><path class="cls-22" d="M155.06,447.2c-1.36,3.06-.72,4.2,0,4.26S156.43,450.25,155.06,447.2Z"/><path class="cls-24" d="M154.29,448.22c-1.49,3.17-1.05,4.66-.23,5S155.65,451.8,154.29,448.22Z"/><path class="cls-25" d="M155.83,448.22c1.49,3.17,1.05,4.66.23,5S154.47,451.8,155.83,448.22Z"/><path class="cls-23" d="M155.06,449.66c-1.62,3.82-1,5.45,0,5.56C156.09,455.11,156.68,453.48,155.06,449.66Z"/><path class="cls-23" d="M153.32,450c-1.47,3-.91,5.13,0,5.71C154.33,456.15,154.66,454,153.32,450Z"/><path class="cls-25" d="M154,451.13c-1.93,3.07-1.48,4.72-.45,5.35C154.66,456.88,155.55,455.31,154,451.13Z"/><path class="cls-22" d="M156.8,450c1.47,3,.91,5.13,0,5.71C155.79,456.15,155.46,454,156.8,450Z"/><path class="cls-24" d="M156.11,451.13c1.93,3.07,1.48,4.72.45,5.35C155.46,456.88,154.57,455.31,156.11,451.13Z"/><path class="cls-22" d="M152.23,452.58c-.74,3.21.31,5.37,1.76,5.75a4.08,4.08,0,0,0,1.07.16A44.05,44.05,0,0,0,152.23,452.58Z"/><path class="cls-23" d="M157.89,452.58c.74,3.21-.31,5.37-1.76,5.75a4.06,4.06,0,0,1-1.07.16A43.91,43.91,0,0,1,157.89,452.58Z"/><path class="cls-22" d="M155.06,452.43c-1.83,3.67-1.21,5.71,0,5.84C156.28,458.15,156.89,456.1,155.06,452.43Z"/><path class="cls-24" d="M153.58,453.88c-1.56,2.31-.45,4.25,1.48,4.62A8.13,8.13,0,0,0,153.58,453.88Z"/><path class="cls-25" d="M156.55,453.87c1.56,2.31.45,4.25-1.48,4.62A8.13,8.13,0,0,1,156.55,453.87Z"/><path class="cls-23" d="M153,464.5h2.12c0-2-2.75-2.82-2.75-2.82Z"/><path class="cls-24" d="M157.29,469.32h-2.22c0-2.14,2.88-3,2.88-3Z"/><polygon class="cls-22" points="175.05 480.89 174.55 457.61 170.74 457.61 170.24 480.89 175.05 480.89"/><path class="cls-22" d="M172.64,447.2c-1.36,3.06-.72,4.2,0,4.26S174,450.25,172.64,447.2Z"/><path class="cls-24" d="M171.88,448.22c-1.49,3.17-1.05,4.66-.23,5S173.24,451.8,171.88,448.22Z"/><path class="cls-25" d="M173.41,448.22c1.49,3.17,1.05,4.66.23,5S172.05,451.8,173.41,448.22Z"/><path class="cls-23" d="M172.64,449.66c-1.62,3.82-1,5.45,0,5.56C173.67,455.11,174.26,453.48,172.64,449.66Z"/><path class="cls-23" d="M170.9,450c-1.47,3-.91,5.13,0,5.71C171.91,456.15,172.25,454,170.9,450Z"/><path class="cls-25" d="M171.6,451.13c-1.93,3.07-1.48,4.72-.45,5.35C172.24,456.88,173.14,455.31,171.6,451.13Z"/><path class="cls-22" d="M174.38,450c1.47,3,.91,5.13,0,5.71C173.37,456.15,173,454,174.38,450Z"/><path class="cls-24" d="M173.69,451.13c1.93,3.07,1.48,4.72.45,5.35C173,456.88,172.15,455.31,173.69,451.13Z"/><path class="cls-22" d="M169.81,452.58c-.74,3.21.31,5.37,1.76,5.75a4.08,4.08,0,0,0,1.07.16A44.06,44.06,0,0,0,169.81,452.58Z"/><path class="cls-23" d="M175.47,452.58c.74,3.21-.31,5.37-1.76,5.75a4.06,4.06,0,0,1-1.07.16A43.91,43.91,0,0,1,175.47,452.58Z"/><path class="cls-22" d="M172.64,452.43c-1.83,3.67-1.21,5.71,0,5.84C173.86,458.15,174.47,456.1,172.64,452.43Z"/><path class="cls-24" d="M171.16,453.88c-1.56,2.31-.45,4.25,1.48,4.62A8.13,8.13,0,0,0,171.16,453.88Z"/><path class="cls-25" d="M174.14,453.87c1.56,2.31.45,4.25-1.48,4.62A8.13,8.13,0,0,1,174.14,453.87Z"/><path class="cls-23" d="M170.56,464.5h2.12c0-2-2.75-2.82-2.75-2.82Z"/><path class="cls-24" d="M174.87,469.32h-2.22c0-2.14,2.88-3,2.88-3Z"/><path class="cls-22" d="M163.9,436.31c-1.36,3.06-.72,4.2,0,4.26S165.26,439.36,163.9,436.31Z"/><path class="cls-24" d="M163.13,437.33c-1.49,3.17-1.05,4.66-.23,5S164.49,440.91,163.13,437.33Z"/><path class="cls-25" d="M164.67,437.33c1.49,3.17,1.05,4.66.23,5S163.31,440.91,164.67,437.33Z"/><path class="cls-23" d="M163.9,438.77c-1.62,3.82-1,5.45,0,5.56C164.93,444.22,165.52,442.59,163.9,438.77Z"/><path class="cls-23" d="M162.16,439.16c-1.47,3-.91,5.13,0,5.71C163.17,445.27,163.5,443.1,162.16,439.16Z"/><path class="cls-25" d="M162.85,440.24c-1.93,3.07-1.48,4.72-.45,5.35C163.5,446,164.39,444.42,162.85,440.24Z"/><path class="cls-22" d="M165.64,439.16c1.47,3,.91,5.13,0,5.71C164.63,445.27,164.3,443.1,165.64,439.16Z"/><path class="cls-24" d="M164.94,440.24c1.93,3.07,1.48,4.72.45,5.35C164.3,446,163.41,444.42,164.94,440.24Z"/><path class="cls-22" d="M161.07,441.69c-.74,3.21.31,5.37,1.76,5.75a4.08,4.08,0,0,0,1.07.16A44.06,44.06,0,0,0,161.07,441.69Z"/><path class="cls-23" d="M166.73,441.69c.74,3.21-.31,5.37-1.76,5.75a4.06,4.06,0,0,1-1.07.16A43.9,43.9,0,0,1,166.73,441.69Z"/><path class="cls-22" d="M163.9,441.54c-1.83,3.67-1.21,5.71,0,5.84C165.11,447.26,165.73,445.21,163.9,441.54Z"/><path class="cls-24" d="M162.41,443c-1.56,2.31-.45,4.25,1.48,4.62A8.13,8.13,0,0,0,162.41,443Z"/><path class="cls-25" d="M165.39,443c1.56,2.31.45,4.25-1.48,4.62A8.13,8.13,0,0,1,165.39,443Z"/><rect class="cls-26" x="177.26" y="440.16" width="67.98" height="4.54" rx="2.27" ry="2.27"/><path class="cls-27" d="M243,440.16H179.62a2.33,2.33,0,0,0-2.36,2.13,2.27,2.27,0,0,0,2.27,2.41h.33v12.72a20.46,20.46,0,0,0,20.46,20.46h21.87a20.46,20.46,0,0,0,20.46-20.46V444.71h.24a2.33,2.33,0,0,0,2.36-2.13A2.27,2.27,0,0,0,243,440.16Z"/><path class="cls-9" d="M179.53,444.7h.33v6.5h62.79v-6.49h.24a2.33,2.33,0,0,0,2.36-2.13,2.27,2.27,0,0,0-2.27-2.41H179.62a2.33,2.33,0,0,0-2.36,2.13A2.27,2.27,0,0,0,179.53,444.7Z"/><path class="cls-9" d="M180.67,463.16a20.46,20.46,0,0,0,19.64,14.72h21.87a20.46,20.46,0,0,0,19.64-14.72Z"/><rect class="cls-26" x="186.5" y="473.88" width="49.49" height="6.15" rx="3.08" ry="3.08"/><rect class="cls-26" x="177.43" y="440.16" width="67.8" height="4.54" rx="2.27" ry="2.27"/><rect class="cls-28" x="162.68" y="472.38" width="10.35" height="3.5" transform="translate(-151.66 85.69) rotate(-19.94)"/><circle class="cls-29" cx="161.18" cy="474.49" r="2.2" transform="translate(-331.07 568.38) rotate(-82.04)"/><circle class="cls-28" cx="162.23" cy="477.22" r="2.2" transform="translate(-332.85 571.77) rotate(-82.04)"/><path class="cls-30" d="M184.67,455.64h0l-7.56,2.23c-5.81,1.72-9.27,8.35-7.72,14.82h0c.84,3.5,4.06,5.59,7.2,4.66l4-1.19a6.29,6.29,0,0,1,6.81,2.38h0a4.67,4.67,0,0,0,3.71,1.91l9.45,0,0-27.38-13.6,0A2.43,2.43,0,0,0,184.67,455.64Z"/><rect class="cls-31" x="193.27" y="453.06" width="15.65" height="27.38" rx="7.82" ry="7.82" transform="translate(-0.79 0.34) rotate(-0.1)"/><path class="cls-32" d="M195.49,461.38l0,10.75a4.4,4.4,0,0,0,4.41,4.4h2.37a4.4,4.4,0,0,0,4.4-4.41l0-10.75a4.4,4.4,0,0,0-4.41-4.4h-2.37A4.4,4.4,0,0,0,195.49,461.38Zm5.61,13.07h0a4.4,4.4,0,0,1-4.41-4.4v-6.6a4.4,4.4,0,0,1,4.4-4.41h0a4.4,4.4,0,0,1,4.41,4.4V470A4.4,4.4,0,0,1,201.1,474.45Z"/><ellipse class="cls-32" cx="202.29" cy="466.44" rx="0.65" ry="1.3" transform="translate(-0.79 0.34) rotate(-0.1)"/><path class="cls-5" d="M302.49,462.56h0a3.94,3.94,0,0,0-3.08,3.49l-.8,8.83a6.44,6.44,0,0,0,7.68,4.9h0a6.44,6.44,0,0,0,4.9-7.68l-4.44-7.67A3.94,3.94,0,0,0,302.49,462.56Z"/><path class="cls-6" d="M306.75,464.43a3.94,3.94,0,0,0-4.26-1.87l-.07,0a3.93,3.93,0,0,1,1.46,1.45l4.44,7.67a6.44,6.44,0,0,1-4.9,7.68h0a6.47,6.47,0,0,1-.85.12,6.41,6.41,0,0,0,3.72.29h0a6.44,6.44,0,0,0,4.9-7.68Z"/><rect class="cls-29" x="139" y="429.93" width="9.28" height="2.03" transform="translate(-306.97 373.52) rotate(-64.3)"/><rect class="cls-29" x="129.89" y="454.93" width="8.56" height="2.04" transform="translate(-279.6 222.11) rotate(-44.13)"/><rect class="cls-33" x="135.98" y="449.88" width="2.71" height="6.78" transform="translate(-280.28 229.87) rotate(-45)"/><rect class="cls-28" x="96.92" y="459.83" width="0.34" height="17.76"/><rect class="cls-28" x="99.66" y="459.4" width="0.34" height="17.76" transform="translate(-139.82 53.77) rotate(-18)"/><rect class="cls-28" x="102.14" y="458.13" width="0.34" height="17.76" transform="translate(-254.97 149.33) rotate(-36)"/><rect class="cls-28" x="104.1" y="456.17" width="0.34" height="17.76" transform="translate(-333.25 276.07) rotate(-54)"/><rect class="cls-28" x="105.37" y="453.69" width="0.34" height="17.76" transform="translate(-367.01 420) rotate(-72)"/><rect class="cls-28" x="97.09" y="459.66" width="17.76" height="0.34"/><rect class="cls-28" x="96.65" y="456.92" width="17.76" height="0.34" transform="translate(-135.91 54.88) rotate(-17.97)"/><rect class="cls-28" x="95.39" y="454.44" width="17.76" height="0.34" transform="translate(-247.4 148.23) rotate(-36.02)"/><rect class="cls-28" x="93.43" y="452.48" width="17.76" height="0.34" transform="translate(-323.96 269.21) rotate(-53.98)"/><rect class="cls-28" x="90.95" y="451.21" width="17.76" height="0.34" transform="translate(-360.33 407.05) rotate(-72.03)"/><rect class="cls-28" x="96.92" y="442.07" width="0.34" height="17.76"/><rect class="cls-28" x="94.17" y="442.5" width="0.34" height="17.76" transform="translate(-134.87 51.25) rotate(-18)"/><rect class="cls-28" x="91.7" y="443.76" width="0.34" height="17.76" transform="translate(-248.51 140.44) rotate(-36)"/><rect class="cls-28" x="89.73" y="445.73" width="0.34" height="17.76" transform="translate(-330.73 260.13) rotate(-54)"/><rect class="cls-28" x="88.47" y="448.2" width="0.34" height="17.76" transform="translate(-373.47 400.14) rotate(-72)"/><rect class="cls-28" x="79.32" y="459.66" width="17.76" height="0.34"/><rect class="cls-28" x="79.76" y="462.41" width="17.76" height="0.34" transform="translate(-138.42 49.93) rotate(-17.97)"/><rect class="cls-28" x="81.02" y="464.88" width="17.76" height="0.34" transform="translate(-256.29 141.78) rotate(-36.02)"/><rect class="cls-28" x="82.99" y="466.85" width="17.76" height="0.34" transform="translate(-339.89 266.69) rotate(-53.98)"/><rect class="cls-28" x="85.46" y="468.11" width="17.76" height="0.34" transform="translate(-380.19 413.51) rotate(-72.03)"/><rect class="cls-28" x="156.96" y="459.83" width="0.34" height="17.76"/><rect class="cls-28" x="159.7" y="459.4" width="0.34" height="17.76" transform="translate(-136.88 72.32) rotate(-18)"/><rect class="cls-28" x="162.18" y="458.13" width="0.34" height="17.76" transform="translate(-243.5 184.62) rotate(-36)"/><rect class="cls-28" x="164.14" y="456.17" width="0.34" height="17.76" transform="translate(-308.5 324.64) rotate(-54)"/><rect class="cls-28" x="165.41" y="453.69" width="0.34" height="17.76" transform="translate(-325.53 477.1) rotate(-72)"/><rect class="cls-28" x="157.13" y="459.66" width="17.76" height="0.34"/><rect class="cls-28" x="156.69" y="456.92" width="17.76" height="0.34" transform="translate(-132.98 73.41) rotate(-17.97)"/><rect class="cls-28" x="155.43" y="454.44" width="17.76" height="0.34" transform="translate(-235.92 183.54) rotate(-36.02)"/><rect class="cls-28" x="153.47" y="452.48" width="17.76" height="0.34" transform="translate(-299.23 317.78) rotate(-53.98)"/><rect class="cls-28" x="150.99" y="451.21" width="17.76" height="0.34" transform="translate(-318.82 464.16) rotate(-72.03)"/><rect class="cls-28" x="156.96" y="442.07" width="0.34" height="17.76"/><rect class="cls-28" x="154.21" y="442.5" width="0.34" height="17.76" transform="translate(-131.93 69.8) rotate(-18)"/><rect class="cls-28" x="151.74" y="443.76" width="0.34" height="17.76" transform="translate(-237.05 175.74) rotate(-36)"/><rect class="cls-28" x="149.77" y="445.73" width="0.34" height="17.76" transform="translate(-305.98 308.71) rotate(-54)"/><rect class="cls-28" x="148.51" y="448.2" width="0.34" height="17.76" transform="translate(-331.98 457.24) rotate(-72)"/><rect class="cls-28" x="139.36" y="459.66" width="17.76" height="0.34"/><rect class="cls-28" x="139.8" y="462.41" width="17.76" height="0.34" transform="translate(-135.49 68.46) rotate(-17.97)"/><rect class="cls-28" x="141.06" y="464.88" width="17.76" height="0.34" transform="translate(-244.81 177.08) rotate(-36.02)"/><rect class="cls-28" x="143.03" y="466.85" width="17.76" height="0.34" transform="translate(-315.15 315.25) rotate(-53.98)"/><rect class="cls-28" x="145.5" y="468.11" width="17.76" height="0.34" transform="translate(-338.68 470.62) rotate(-72.03)"/><path class="cls-33" d="M97.09,480a20.17,20.17,0,1,1,20.17-20.17A20.19,20.19,0,0,1,97.09,480Zm0-37.62a17.45,17.45,0,1,0,17.45,17.45A17.47,17.47,0,0,0,97.09,442.38Z"/><path class="cls-33" d="M157.27,480a20.17,20.17,0,1,1,20.16-20.17A20.19,20.19,0,0,1,157.27,480Zm0-37.62a17.45,17.45,0,1,0,17.45,17.45A17.47,17.47,0,0,0,157.27,442.38Z"/><circle class="cls-29" cx="96.97" cy="459.93" r="2.33"/><circle class="cls-29" cx="157.13" cy="459.93" r="2.33"/><path class="cls-15" d="M157.27,461.19H130.61a1.36,1.36,0,0,1-1.24-1.91l11.79-26.44a1.36,1.36,0,0,1,2.42-.11l14.87,26.44a1.36,1.36,0,0,1-1.18,2Zm-24.57-2.71H155l-12.41-22.07Z"/><path class="cls-15" d="M97.09,461.19a1.36,1.36,0,0,1-1.21-2L113,424.65a1.36,1.36,0,1,1,2.43,1.21L98.3,460.44A1.36,1.36,0,0,1,97.09,461.19Z"/><path class="cls-15" d="M130.61,461.19a1.35,1.35,0,0,1-1.06-.51l-20.94-26.44a1.36,1.36,0,0,1,1.06-2.2H142.4a1.36,1.36,0,1,1,0,2.71H112.48L131.67,459a1.36,1.36,0,0,1-1.06,2.2Z"/><circle class="cls-14" cx="130.77" cy="459.83" r="5.11"/><path class="cls-30" d="M143.62,424h0a1.55,1.55,0,0,0-1.13.5.74.74,0,0,1-.52.22H136.9a.74.74,0,0,0-.74.74v.09a2.43,2.43,0,0,0,2.43,2.43h7.81a4,4,0,0,0,4-4h0a.74.74,0,0,0-.74-.74l-4,.06a.74.74,0,0,0-.46.16A2.41,2.41,0,0,1,143.62,424Z"/><path class="cls-29" d="M122.59,428.26a1,1,0,0,1-.77-.35l-2.41-2.76h-5.64a1,1,0,1,1,0-2h6.57l3,3.46a1,1,0,0,1-.77,1.69Z"/><rect class="cls-29" x="123.42" y="461.79" width="8.56" height="2.04" transform="translate(-286.21 219.53) rotate(-44.13)"/><rect class="cls-33" x="123.18" y="462.11" width="2.71" height="6.78" transform="translate(-292.68 224.4) rotate(-45)"/><path class="cls-16" d="M80,480.6H66.8c-4.25,0-7.89-2.33-8.69-5.54l.1-16.83a5.48,5.48,0,0,1,5.38-6.5H83.18a5.48,5.48,0,0,1,5.38,6.5l.1,16.83C87.87,478.28,84.22,480.6,80,480.6Z"/><path class="cls-17" d="M83.18,451.73h-10l-.07,28.87H80c4.25,0,7.89-2.33,8.69-5.54l-.1-16.83A5.48,5.48,0,0,0,83.18,451.73Z"/><circle class="cls-30" cx="73.44" cy="452.24" r="8.67"/><circle class="cls-28" cx="73.44" cy="452.24" r="7.68"/><path class="cls-33" d="M73.39,446.56a.17.17,0,0,1-.17-.17v-1.27a.17.17,0,0,1,.34,0v1.27A.17.17,0,0,1,73.39,446.56Z"/><path class="cls-33" d="M71.58,446.86a.17.17,0,0,1-.16-.12L71,445.53a.17.17,0,0,1,.32-.1l.39,1.21a.17.17,0,0,1-.11.21Z"/><path class="cls-33" d="M70,447.7a.17.17,0,0,1-.14-.07l-.75-1a.17.17,0,0,1,.27-.2l.75,1a.17.17,0,0,1-.14.27Z"/><path class="cls-33" d="M68.67,449a.17.17,0,0,1-.1,0l-1-.75a.17.17,0,0,1,.2-.27l1,.75a.17.17,0,0,1-.1.31Z"/><path class="cls-33" d="M67.85,450.65H67.8l-1.21-.39a.17.17,0,0,1,.1-.32l1.21.39a.17.17,0,0,1-.05.33Z"/><path class="cls-33" d="M67.58,452.46H66.31a.17.17,0,0,1,0-.34h1.27a.17.17,0,0,1,0,.34Z"/><path class="cls-33" d="M66.67,454.66a.17.17,0,0,1-.05-.33l1.21-.39a.17.17,0,0,1,.1.32l-1.21.39Z"/><path class="cls-33" d="M67.7,456.64a.17.17,0,0,1-.1-.31l1-.75a.17.17,0,1,1,.2.27l-1,.75A.17.17,0,0,1,67.7,456.64Z"/><path class="cls-33" d="M69.29,458.21a.17.17,0,0,1-.14-.27l.75-1a.17.17,0,1,1,.27.2l-.75,1A.17.17,0,0,1,69.29,458.21Z"/><path class="cls-33" d="M71.28,459.21h-.05a.17.17,0,0,1-.11-.21l.39-1.21a.17.17,0,0,1,.32.1l-.39,1.21A.17.17,0,0,1,71.28,459.21Z"/><path class="cls-33" d="M73.49,459.54a.17.17,0,0,1-.17-.17V458.1a.17.17,0,0,1,.34,0v1.27A.17.17,0,0,1,73.49,459.54Z"/><path class="cls-33" d="M75.69,459.18a.17.17,0,0,1-.16-.12l-.39-1.21a.17.17,0,0,1,.32-.1l.39,1.21a.17.17,0,0,1-.11.21Z"/><path class="cls-33" d="M77.67,458.15a.17.17,0,0,1-.14-.07l-.75-1a.17.17,0,1,1,.27-.2l.75,1a.17.17,0,0,1-.14.27Z"/><path class="cls-33" d="M79.24,456.56a.17.17,0,0,1-.1,0l-1-.75a.17.17,0,0,1,.2-.27l1,.75a.17.17,0,0,1-.1.31Z"/><path class="cls-33" d="M80.23,454.57h-.05L79,454.17a.17.17,0,0,1,.1-.32l1.21.39a.17.17,0,0,1-.05.33Z"/><path class="cls-33" d="M80.57,452.36H79.3a.17.17,0,0,1,0-.34h1.27a.17.17,0,0,1,0,.34Z"/><path class="cls-33" d="M79,450.56a.17.17,0,0,1-.05-.33l1.21-.39a.17.17,0,0,1,.1.32l-1.21.39Z"/><path class="cls-33" d="M78.15,448.93a.17.17,0,0,1-.1-.31l1-.75a.17.17,0,0,1,.2.27l-1,.75A.17.17,0,0,1,78.15,448.93Z"/><path class="cls-33" d="M76.84,447.64a.17.17,0,0,1-.14-.27l.75-1a.17.17,0,0,1,.27.2l-.75,1A.17.17,0,0,1,76.84,447.64Z"/><path class="cls-33" d="M75.2,446.83h-.05a.17.17,0,0,1-.11-.21l.39-1.21a.17.17,0,0,1,.32.1l-.39,1.21A.17.17,0,0,1,75.2,446.83Z"/><path class="cls-21" d="M73.44,452.58l-.1,0a.34.34,0,0,1-.22-.42l1.46-4.71a.34.34,0,0,1,.65.2l-1.46,4.71A.34.34,0,0,1,73.44,452.58Z"/><path class="cls-4" d="M73.44,444.08a.51.51,0,0,1-.51-.51V439.5a.51.51,0,0,1,1,0v4.07A.51.51,0,0,1,73.44,444.08Zm0-9.16a.51.51,0,0,1-.51-.51v-4.07a.51.51,0,0,1,1,0v4.07A.51.51,0,0,1,73.44,434.92Zm0-9.16a.51.51,0,0,1-.51-.51v-4.07a.51.51,0,0,1,1,0v4.07A.51.51,0,0,1,73.44,425.76Zm0-9.16a.51.51,0,0,1-.51-.51V412a.51.51,0,0,1,1,0v4.07A.51.51,0,0,1,73.44,416.61Zm0-9.16a.51.51,0,0,1-.51-.51v-4.07a.51.51,0,0,1,1,0v4.07A.51.51,0,0,1,73.44,407.45Zm.25-9.14h-.12a.51.51,0,0,1-.38-.61A9.83,9.83,0,0,1,75,393.85a.51.51,0,1,1,.8.63,8.82,8.82,0,0,0-1.66,3.44A.51.51,0,0,1,73.69,398.31Zm5.79-6.63a.51.51,0,0,1-.18-1,9.89,9.89,0,0,1,3.57-.66h.61a.51.51,0,1,1,0,1h-.61a8.88,8.88,0,0,0-3.2.59A.51.51,0,0,1,79.48,391.68Zm19.73-.63H97.72a.51.51,0,1,1,0-1h1.49a.51.51,0,1,1,0,1Zm-6.58,0H88.56a.51.51,0,1,1,0-1h4.07a.51.51,0,1,1,0,1Z"/><path class="cls-4" d="M37.11,457.89l-29,12.28a5.15,5.15,0,0,0-3.13,5.15h0a5.15,5.15,0,0,0,5.13,4.74h48a5.15,5.15,0,0,0,5.15-5.15v-9.69a5.15,5.15,0,0,0-4.45-5.1l-19-2.59A5.15,5.15,0,0,0,37.11,457.89Z"/><path class="cls-34" d="M60.66,466.76,29.17,471.1l-7.21,1-14.62,2A6.34,6.34,0,0,1,5,474a5.14,5.14,0,0,0-.07,1.34h0a5.15,5.15,0,0,0,5.13,4.74h48a5.15,5.15,0,0,0,5.15-5.15v-9.11A6.3,6.3,0,0,1,60.66,466.76Z"/><path class="cls-28" d="M60.87,473.26,30.81,476l-6.88.63L10,477.95a5.54,5.54,0,0,1-5-2.22A5.15,5.15,0,0,0,10,480.06h48a5.15,5.15,0,0,0,5.15-5.15v-2.4A5.73,5.73,0,0,1,60.87,473.26Z"/><path class="cls-34" d="M21.83,464.35a5.53,5.53,0,0,0,6.85,1.51c4.43-1.91,15.37-7.75,15.37-7.75l-5-.67a2.09,2.09,0,0,0-1.12.14Z"/><path class="cls-28" d="M36.65,463.07a.51.51,0,0,1-.51-.51v-4.07a.51.51,0,0,1,.85-.38l2.74,2.46a.51.51,0,1,1-.68.76l-1.9-1.7v2.93A.51.51,0,0,1,36.65,463.07Z"/><path class="cls-28" d="M31.74,465a.51.51,0,0,1-.51-.51v-4.07a.51.51,0,0,1,.85-.38l2.74,2.46a.51.51,0,1,1-.68.76l-1.9-1.7v2.93A.51.51,0,0,1,31.74,465Z"/><path class="cls-28" d="M26.82,467.06a.51.51,0,0,1-.51-.51v-4.07a.51.51,0,0,1,.85-.38l2.74,2.46a.51.51,0,1,1-.68.76l-1.9-1.7v2.93A.51.51,0,0,1,26.82,467.06Z"/><path class="cls-21" d="M210,375.14a.34.34,0,0,1-.34-.34v-3.48a.34.34,0,0,1,.68,0v3.48A.34.34,0,0,1,210,375.14Z"/><path class="cls-21" d="M201.35,399.55a.85.85,0,0,1-.72-1.29l2.08-3.41a.85.85,0,0,1,1.45.88l-2.08,3.41A.85.85,0,0,1,201.35,399.55Z"/><path class="cls-21" d="M218.71,399.55a.85.85,0,0,1-.73-.41l-2.08-3.41a.85.85,0,0,1,1.45-.88l2.08,3.41a.85.85,0,0,1-.72,1.29Z"/><circle class="cls-35" cx="210.04" cy="385.94" r="11.14"/><path class="cls-12" d="M203.82,368.56h0a3.42,3.42,0,0,1,3.42,3.42v2.09a0,0,0,0,1,0,0H200.4a0,0,0,0,1,0,0V372A3.42,3.42,0,0,1,203.82,368.56Z" transform="translate(-123.9 102.96) rotate(-21.92)"/><path class="cls-12" d="M212.84,368.56h6.83a0,0,0,0,1,0,0v2.09a3.42,3.42,0,0,1-3.42,3.42h0a3.42,3.42,0,0,1-3.42-3.42v-2.09A0,0,0,0,1,212.84,368.56Z" transform="translate(278.22 796.53) rotate(-158.08)"/><path class="cls-36" d="M220.13,386.11h-1.92a.17.17,0,0,1,0-.34h1.92a.17.17,0,1,1,0,.34Z"/><path class="cls-36" d="M217.81,383.58a.17.17,0,0,1-.05-.33l1.83-.59a.17.17,0,0,1,.1.32l-1.83.59Z"/><path class="cls-36" d="M216.65,381.3a.17.17,0,0,1-.1-.31l1.56-1.13a.17.17,0,1,1,.2.27l-1.56,1.13A.17.17,0,0,1,216.65,381.3Z"/><path class="cls-36" d="M214.84,379.5a.17.17,0,0,1-.14-.27l1.13-1.56a.17.17,0,1,1,.27.2L215,379.43A.17.17,0,0,1,214.84,379.5Z"/><path class="cls-36" d="M212.56,378.34h-.05a.17.17,0,0,1-.11-.21l.59-1.83a.17.17,0,0,1,.32.1l-.59,1.83A.17.17,0,0,1,212.56,378.34Z"/><path class="cls-36" d="M210,377.94a.17.17,0,0,1-.17-.17v-1.92a.17.17,0,1,1,.34,0v1.92A.17.17,0,0,1,210,377.94Z"/><path class="cls-36" d="M207.51,378.34a.17.17,0,0,1-.16-.12l-.59-1.83a.17.17,0,0,1,.32-.1l.59,1.83a.17.17,0,0,1-.11.21Z"/><path class="cls-36" d="M205.24,379.5a.17.17,0,0,1-.14-.07L204,377.87a.17.17,0,0,1,.27-.2l1.13,1.56a.17.17,0,0,1-.14.27Z"/><path class="cls-36" d="M203.43,381.3a.17.17,0,0,1-.1,0l-1.56-1.13a.17.17,0,0,1,.2-.27l1.56,1.13a.17.17,0,0,1-.1.31Z"/><path class="cls-36" d="M202.27,383.58h-.05l-1.83-.59a.17.17,0,0,1,.1-.32l1.83.59a.17.17,0,0,1-.05.33Z"/><path class="cls-36" d="M201.87,386.11h-1.92a.17.17,0,0,1,0-.34h1.92a.17.17,0,0,1,0,.34Z"/><path class="cls-36" d="M200.44,389.23a.17.17,0,0,1-.05-.33l1.83-.59a.17.17,0,1,1,.1.32l-1.83.59Z"/><path class="cls-36" d="M201.87,392a.17.17,0,0,1-.1-.31l1.56-1.13a.17.17,0,0,1,.2.27L202,392A.17.17,0,0,1,201.87,392Z"/><path class="cls-36" d="M204.1,394.27A.17.17,0,0,1,204,394l1.13-1.56a.17.17,0,1,1,.27.2l-1.13,1.56A.17.17,0,0,1,204.1,394.27Z"/><path class="cls-36" d="M206.92,395.71h-.05a.17.17,0,0,1-.11-.21l.59-1.83a.17.17,0,1,1,.32.1l-.59,1.83A.17.17,0,0,1,206.92,395.71Z"/><path class="cls-36" d="M210,396.2a.17.17,0,0,1-.17-.17v-1.92a.17.17,0,0,1,.34,0V396A.17.17,0,0,1,210,396.2Z"/><path class="cls-36" d="M213.16,395.71a.17.17,0,0,1-.16-.12l-.59-1.83a.17.17,0,1,1,.32-.1l.59,1.83a.17.17,0,0,1-.11.21Z"/><path class="cls-36" d="M216,394.27a.17.17,0,0,1-.14-.07l-1.13-1.56a.17.17,0,0,1,.27-.2l1.13,1.56a.17.17,0,0,1-.14.27Z"/><path class="cls-36" d="M218.2,392a.17.17,0,0,1-.1,0l-1.56-1.13a.17.17,0,0,1,.2-.27l1.56,1.13a.17.17,0,0,1-.1.31Z"/><path class="cls-36" d="M219.64,389.23h-.05l-1.83-.59a.17.17,0,1,1,.1-.32l1.83.59a.17.17,0,0,1-.05.33Z"/><path class="cls-21" d="M215.34,390a.34.34,0,0,1-.2-.06l-5.45-3.86v-6.39a.34.34,0,0,1,.68,0v6l5.16,3.66a.34.34,0,0,1-.2.62Z"/><path class="cls-21" d="M211.67,371.65h-3.48a.85.85,0,0,1,0-1.7h3.48a.85.85,0,0,1,0,1.7Z"/><rect class="cls-4" x="89.33" y="387.47" width="3.55" height="6.15" rx="1.77" ry="1.77"/><rect class="cls-33" x="91.35" y="384.4" width="5.61" height="12.3" rx="2.81" ry="2.81"/><rect class="cls-4" x="130.04" y="387.47" width="3.55" height="6.15" rx="1.77" ry="1.77"/><rect class="cls-26" x="95.67" y="382.14" width="7.67" height="16.81" rx="3.83" ry="3.83"/><rect class="cls-33" x="125.93" y="384.4" width="5.61" height="12.3" rx="2.81" ry="2.81" transform="translate(257.48 781.1) rotate(180)"/><rect class="cls-4" x="103.34" y="388.98" width="20.42" height="3.13"/><rect class="cls-26" x="119.56" y="382.14" width="7.67" height="16.81" rx="3.83" ry="3.83" transform="translate(246.78 781.1) rotate(180)"/><circle class="cls-15" cx="129.32" cy="320.35" r="11.86"/><path class="cls-15" d="M129.32,304.36a.51.51,0,0,1-.51-.51V293.38a.51.51,0,0,1,1,0v10.46A.51.51,0,0,1,129.32,304.36Z"/><path class="cls-15" d="M124.22,305.16a.51.51,0,0,1-.48-.35l-3.23-9.95a.51.51,0,0,1,1-.31l3.23,9.95a.51.51,0,0,1-.33.64Z"/><path class="cls-15" d="M119.62,307.51a.51.51,0,0,1-.41-.21l-6.15-8.46a.51.51,0,0,1,.82-.6L120,306.7a.51.51,0,0,1-.41.81Z"/><path class="cls-15" d="M116,311.16a.51.51,0,0,1-.3-.1l-8.46-6.15a.51.51,0,1,1,.6-.82l8.46,6.15a.51.51,0,0,1-.3.92Z"/><path class="cls-15" d="M113.62,315.76l-.16,0-9.95-3.23a.51.51,0,0,1,.31-1l9.95,3.23a.51.51,0,0,1-.16,1Z"/><path class="cls-15" d="M112.81,320.86H102.35a.51.51,0,0,1,0-1h10.46a.51.51,0,0,1,0,1Z"/><path class="cls-15" d="M103.67,329.2a.51.51,0,0,1-.16-1l9.95-3.23a.51.51,0,1,1,.31,1l-9.95,3.23Z"/><path class="cls-15" d="M107.5,336.71a.51.51,0,0,1-.3-.92l8.46-6.15a.51.51,0,1,1,.6.82l-8.46,6.15A.51.51,0,0,1,107.5,336.71Z"/><path class="cls-15" d="M113.47,342.68a.51.51,0,0,1-.41-.81l6.15-8.46a.51.51,0,1,1,.82.6l-6.15,8.46A.51.51,0,0,1,113.47,342.68Z"/><path class="cls-15" d="M121,346.51l-.16,0a.51.51,0,0,1-.33-.64l3.23-10a.51.51,0,1,1,1,.31l-3.23,10A.51.51,0,0,1,121,346.51Z"/><path class="cls-15" d="M129.32,347.83a.51.51,0,0,1-.51-.51V336.86a.51.51,0,0,1,1,0v10.46A.51.51,0,0,1,129.32,347.83Z"/><path class="cls-15" d="M137.66,346.51a.51.51,0,0,1-.48-.35l-3.23-10a.51.51,0,0,1,1-.31l3.23,10a.51.51,0,0,1-.33.64Z"/><path class="cls-15" d="M145.17,342.68a.51.51,0,0,1-.41-.21L138.61,334a.51.51,0,1,1,.82-.6l6.15,8.46a.51.51,0,0,1-.41.81Z"/><path class="cls-15" d="M151.14,336.71a.51.51,0,0,1-.3-.1l-8.46-6.15a.51.51,0,0,1,.6-.82l8.46,6.15a.51.51,0,0,1-.3.92Z"/><path class="cls-15" d="M155,329.2l-.16,0-9.95-3.23a.51.51,0,0,1,.31-1l9.95,3.23a.51.51,0,0,1-.16,1Z"/><path class="cls-15" d="M156.29,320.86H145.83a.51.51,0,0,1,0-1h10.46a.51.51,0,1,1,0,1Z"/><path class="cls-15" d="M145,315.76a.51.51,0,0,1-.16-1l9.95-3.23a.51.51,0,0,1,.31,1l-9.95,3.23Z"/><path class="cls-15" d="M142.68,311.16a.51.51,0,0,1-.3-.92l8.46-6.15a.51.51,0,1,1,.6.82L143,311.06A.51.51,0,0,1,142.68,311.16Z"/><path class="cls-15" d="M139,307.51a.51.51,0,0,1-.41-.81l6.15-8.46a.51.51,0,0,1,.82.6l-6.15,8.46A.51.51,0,0,1,139,307.51Z"/><path class="cls-15" d="M134.42,305.16l-.16,0a.51.51,0,0,1-.33-.64l3.23-9.95a.51.51,0,0,1,1,.31l-3.23,9.95A.51.51,0,0,1,134.42,305.16Z"/><rect class="cls-4" x="242.74" y="305.26" width="7.67" height="7.67"/><rect class="cls-4" x="242.74" y="327.53" width="7.67" height="7.67"/><rect class="cls-26" x="239.49" y="311.64" width="13.69" height="16.22" rx="3.64" ry="3.64"/><path class="cls-35" d="M246.33,312.5h-2.48a3.64,3.64,0,0,0-3.64,3.64v3.09h6.13Z"/><path class="cls-37" d="M252.46,319.23v-3.09a3.64,3.64,0,0,0-3.64-3.64h-2.48v6.73Z"/><path class="cls-38" d="M243.85,327h2.48v-7.78h-6.13v4.14A3.64,3.64,0,0,0,243.85,327Z"/><path class="cls-39" d="M252.46,323.37v-4.14h-6.13V327h2.48A3.64,3.64,0,0,0,252.46,323.37Z"/><path class="cls-35" d="M255.19,367.46h21.14a4,4,0,0,1,4,4v16.93a8.17,8.17,0,0,1-8.17,8.17H255.19a0,0,0,0,1,0,0V367.46A0,0,0,0,1,255.19,367.46Z"/><rect class="cls-26" x="259.83" y="371.96" width="10.53" height="0.57"/><rect class="cls-26" x="259.83" y="376.81" width="10.53" height="0.57"/><rect class="cls-26" x="259.83" y="381.65" width="10.53" height="0.57"/><rect class="cls-26" x="259.83" y="386.49" width="10.53" height="0.57"/><rect class="cls-26" x="259.83" y="391.34" width="10.53" height="0.57"/><polygon class="cls-40" points="273.75 373.77 272.6 371.82 273.09 371.53 273.98 373.03 277.57 371.35 277.81 371.87 273.75 373.77"/><polygon class="cls-40" points="273.75 378.36 272.6 376.41 273.09 376.12 273.98 377.62 277.57 375.94 277.81 376.46 273.75 378.36"/><polygon class="cls-40" points="273.75 382.94 272.6 381 273.09 380.7 273.98 382.2 277.57 380.53 277.81 381.05 273.75 382.94"/><rect class="cls-41" x="273.19" y="385.57" width="4.02" height="0.57" transform="translate(-184.42 270.21) rotate(-40.38)"/><polygon class="cls-40" points="273.75 392.12 272.6 390.18 273.09 389.88 273.98 391.38 277.57 389.7 277.81 390.23 273.75 392.12"/><polyline class="cls-41" points="254.7 368.85 254.7 374.59 256.34 372.95 257.98 374.59 257.98 368.89"/><circle class="cls-4" cx="256.48" cy="367.34" r="3.48"/><polyline class="cls-4" points="254.03 365.01 253.61 363.2 255 364.26"/><polyline class="cls-4" points="253.43 365.88 252.47 364.29 254.12 364.87"/><polyline class="cls-4" points="253.13 366.89 251.72 365.68 253.47 365.72"/><polyline class="cls-4" points="253.15 367.95 251.44 367.24 253.12 366.73"/><polyline class="cls-4" points="253.51 368.95 251.66 368.8 253.09 367.8"/><polyline class="cls-4" points="254.15 369.79 252.34 370.22 253.4 368.82"/><polyline class="cls-4" points="255.02 370.39 253.44 371.35 254.01 369.7"/><polyline class="cls-4" points="256.04 370.7 254.82 372.1 254.86 370.35"/><polyline class="cls-4" points="257.09 370.67 256.38 372.38 255.87 370.7"/><polyline class="cls-4" points="258.09 370.32 257.94 372.17 256.94 370.73"/><polyline class="cls-4" points="258.93 369.68 259.36 371.48 257.96 370.42"/><circle class="cls-42" cx="256.48" cy="367.34" r="2.79"/><circle class="cls-41" cx="256.48" cy="367.34" r="2.25"/><polyline class="cls-4" points="255.87 364.01 256.59 362.31 257.09 363.98"/><polyline class="cls-4" points="254.87 364.37 255.03 362.52 256.02 363.95"/><polyline class="cls-4" points="259.54 368.8 260.5 370.39 258.84 369.81"/><polyline class="cls-4" points="259.84 367.79 261.24 369 259.49 368.96"/><polyline class="cls-4" points="259.81 366.73 261.52 367.45 259.85 367.95"/><polyline class="cls-4" points="259.46 365.73 261.31 365.89 259.87 366.88"/><polyline class="cls-4" points="258.82 364.89 260.62 364.47 259.56 365.86"/><polyline class="cls-4" points="257.94 364.29 259.53 363.33 258.95 364.98"/><polyline class="cls-4" points="256.93 363.99 258.14 362.58 258.1 364.33"/><rect class="cls-41" x="274.85" y="383.9" width="0.57" height="3.92" transform="translate(-196.09 335.54) rotate(-48.41)"/><path class="cls-4" d="M46,461a.51.51,0,0,1-.51-.51v-.16a.51.51,0,0,1,1,0v.16A.51.51,0,0,1,46,461Zm0-5.25a.51.51,0,0,1-.51-.51v-4.07a.51.51,0,0,1,1,0v4.07A.51.51,0,0,1,46,455.79Zm0-9.16a.51.51,0,0,1-.51-.51v-4.07a.51.51,0,0,1,1,0v4.07A.51.51,0,0,1,46,446.63Zm0-9.16a.51.51,0,0,1-.51-.51V432.9a.51.51,0,0,1,1,0V437A.51.51,0,0,1,46,437.48Zm0-9.16a.51.51,0,0,1-.51-.51v-4.07a.51.51,0,0,1,1,0v4.07A.51.51,0,0,1,46,428.32Zm0-9.16a.51.51,0,0,1-.51-.51v-4.07a.51.51,0,0,1,1,0v4.07A.51.51,0,0,1,46,419.16ZM46,410a.51.51,0,0,1-.51-.51v-4.07a.51.51,0,0,1,1,0v4.07A.51.51,0,0,1,46,410Zm0-9.16a.51.51,0,0,1-.51-.51v-4.07a.51.51,0,1,1,1,0v4.07A.51.51,0,0,1,46,400.85Zm0-9.16a.51.51,0,0,1-.51-.51v-4.07a.51.51,0,0,1,1,0v4.07A.51.51,0,0,1,46,391.69Zm0-9.16a.51.51,0,0,1-.51-.51V378a.51.51,0,0,1,1,0V382A.51.51,0,0,1,46,382.53Zm0-9.16a.51.51,0,0,1-.51-.51v-4.07a.51.51,0,0,1,1,0v4.07A.51.51,0,0,1,46,373.37Zm0-9.16a.51.51,0,0,1-.51-.51v-4.07a.51.51,0,0,1,1,0v4.07A.51.51,0,0,1,46,364.22Zm0-9.16a.51.51,0,0,1-.51-.51v-4.07a.51.51,0,1,1,1,0v4.07A.51.51,0,0,1,46,355.06Zm0-9.16a.51.51,0,0,1-.51-.51v-4.07a.51.51,0,0,1,1,0v4.07A.51.51,0,0,1,46,345.9Zm.24-9.14h-.08a.51.51,0,0,1-.42-.58,19.87,19.87,0,0,1,1.08-4,.51.51,0,0,1,.95.37,18.85,18.85,0,0,0-1,3.82A.51.51,0,0,1,46.25,336.76Zm3.47-8.38a.51.51,0,0,1-.41-.81,20.09,20.09,0,0,1,2.79-3.1.51.51,0,0,1,.68.76,19.11,19.11,0,0,0-2.65,2.94A.51.51,0,0,1,49.72,328.38Zm6.89-5.9a.51.51,0,0,1-.23-1,19.87,19.87,0,0,1,3.89-1.5.51.51,0,0,1,.26,1,18.87,18.87,0,0,0-3.69,1.42A.51.51,0,0,1,56.61,322.48ZM97,320.86h0l-4.07-.07a.51.51,0,0,1,0-1h0l4.07.07a.51.51,0,0,1,0,1Zm-9.16-.15h0l-4.07-.07a.51.51,0,1,1,0-1l4.07.07a.51.51,0,0,1,0,1Zm-9.16-.15h0l-4.07-.07a.51.51,0,1,1,0-1l4.07.07a.51.51,0,0,1,0,1Zm-9.16-.15h0l-3.71-.06h-.35a.51.51,0,1,1,0-1h.37l3.71.06a.51.51,0,0,1,0,1Z"/><path class="cls-4" d="M179.56,344.88a7.25,7.25,0,0,0-.66.76,7.2,7.2,0,1,0-10.84,9.42h0l10.85,10.85,10.85-10.85h0a7.2,7.2,0,0,0-10.18-10.18Z"/><path class="cls-28" d="M177.14,359.09a.51.51,0,0,1-.49-.36l-2.2-7.38-1.41,4a.51.51,0,0,1-.48.34H162.09v-1h10.12l1.81-5.1a.51.51,0,0,1,1,0l2,6.77.55-3.28a.51.51,0,0,1,.49-.42.52.52,0,0,1,.51.4l.13.58.68-3.53a.51.51,0,0,1,1,0l1.11,4.89.93-3.66a.51.51,0,0,1,.48-.38.49.49,0,0,1,.5.35l1,3.08H194v1H184a.51.51,0,0,1-.48-.35l-.58-1.77-1,4a.52.52,0,0,1-.5.38.51.51,0,0,1-.49-.4l-1-4.59-.69,3.57a.51.51,0,0,1-.49.41h0a.51.51,0,0,1-.5-.4l-.1-.44-.48,2.84a.51.51,0,0,1-.47.42Z"/><path class="cls-4" d="M236.57,321.39h-3.65a.51.51,0,1,1,0-1h3.65a.51.51,0,1,1,0,1Zm-8.74,0h-4.07a.51.51,0,1,1,0-1h4.07a.51.51,0,0,1,0,1Zm-9.16,0H214.6a.51.51,0,1,1,0-1h4.07a.51.51,0,1,1,0,1Zm-9.16,0h-4.07a.51.51,0,0,1,0-1h4.07a.51.51,0,1,1,0,1Zm-9.16,0h-4.07a.51.51,0,0,1,0-1h4.07a.51.51,0,1,1,0,1Zm-9.16,0h-4.07a.51.51,0,1,1,0-1h4.07a.51.51,0,0,1,0,1Zm-9.16,0H178a.51.51,0,1,1,0-1H182a.51.51,0,0,1,0,1Zm-9.16,0h-4.07a.51.51,0,1,1,0-1h4.07a.51.51,0,1,1,0,1Zm-9.16,0h-4.07a.51.51,0,1,1,0-1h4.07a.51.51,0,1,1,0,1Z"/><path class="cls-4" d="M269.72,362.58a.51.51,0,0,1-.51-.51V358a.51.51,0,1,1,1,0v4.07A.51.51,0,0,1,269.72,362.58Zm0-9.16a.51.51,0,0,1-.51-.51v-4.07a.51.51,0,1,1,1,0v4.07A.51.51,0,0,1,269.72,353.42Zm0-9.16a.51.51,0,0,1-.51-.51v-4.07a.51.51,0,1,1,1,0v4.07A.51.51,0,0,1,269.72,344.26Zm0-9.16a.51.51,0,0,1-.51-.51v-3.42q0-.31,0-.62a.51.51,0,1,1,1-.07c0,.23,0,.46,0,.69v3.42A.51.51,0,0,1,269.72,335.1Zm-1.66-8.82a.51.51,0,0,1-.42-.22,9.23,9.23,0,0,0-2.77-2.65.51.51,0,0,1,.53-.87,10.26,10.26,0,0,1,3.07,2.94.51.51,0,0,1-.42.79Zm-7.74-4.22h-4.07a.51.51,0,0,1,0-1h4.08a.51.51,0,0,1,0,1Z"/><path class="cls-4" d="M253.15,391.42h-2.8a.51.51,0,0,1,0-1h2.8a.51.51,0,1,1,0,1Zm-7.88,0H241.2a.51.51,0,1,1,0-1h4.07a.51.51,0,0,1,0,1Zm-9.16,0H232a.51.51,0,0,1,0-1h4.07a.51.51,0,1,1,0,1Zm-9.16,0h-4.07a.51.51,0,0,1,0-1H227a.51.51,0,0,1,0,1Z"/><path class="cls-4" d="M125,381.08a.51.51,0,0,1-.51-.51V376.5a.51.51,0,0,1,1,0v4.07A.51.51,0,0,1,125,381.08Zm0-9.16a.51.51,0,0,1-.51-.51v-4.07a.51.51,0,0,1,1,0v4.07A.51.51,0,0,1,125,371.92Zm.35-9.13-.13,0a.51.51,0,0,1-.36-.62,11.07,11.07,0,0,1,1.84-3.82.51.51,0,0,1,.82.61,10.06,10.06,0,0,0-1.67,3.47A.51.51,0,0,1,125.33,362.79Zm5.63-6.87a.51.51,0,0,1-.22-1,11.07,11.07,0,0,1,4.09-1.1.51.51,0,0,1,.07,1,10.06,10.06,0,0,0-3.72,1A.51.51,0,0,1,131,355.93Zm28.91-1.08h-1.61a.51.51,0,1,1,0-1h1.61a.51.51,0,1,1,0,1Zm-6.7,0h-4.07a.51.51,0,1,1,0-1h4.07a.51.51,0,0,1,0,1Zm-9.16,0h-4.07a.51.51,0,1,1,0-1H144a.51.51,0,1,1,0,1Z"/><path class="cls-26" d="M122.86,429.83a1,1,0,0,1-.72-.3l-2.8-2.8a1,1,0,1,1,1.44-1.44l2.8,2.8a1,1,0,0,1-.72,1.74Z"/><path class="cls-4" d="M238.16,480.14c1.24.51,3.42.83,4.52-1.69a32.56,32.56,0,0,0,2.54-14.4,5.27,5.27,0,0,0-1.81-3.85c-1.22-1-3.55-.64-3.55-.64a8,8,0,0,0-1.4-1.45c-1.61-1.14-5-.95-6.13.6-1.12-1.54-4.51-1.74-6.13-.6a8,8,0,0,0-1.4,1.45s-2.32-.33-3.55.64a5.27,5.27,0,0,0-1.81,3.85,32.56,32.56,0,0,0,2.54,14.4c1.09,2.52,3.28,2.21,4.52,1.69"/><path class="cls-34" d="M226.51,480.14c-1.57-8-1.61-15.42-.33-17.54a2.5,2.5,0,0,0,.38-2.37v-.36l-1.64-.44-.12.16s-2.32-.33-3.55.64a5.26,5.26,0,0,0-1.81,3.85A32.48,32.48,0,0,0,222,478.45C223.09,481,225.27,480.65,226.51,480.14Z"/><path class="cls-43" d="M243.41,460.22c-1.22-1-3.55-.64-3.55-.64a8,8,0,0,0-1.4-1.45c-1.61-1.14-5-.94-6.13.6-1.12-1.54-4.51-1.74-6.13-.6a8,8,0,0,0-1.4,1.45s-2.32-.33-3.55.64l-.21.19c1.24-.19,3.11.39,5.13,2.18,0,0,1.35-2,4.71-.88a5.28,5.28,0,0,0,2.86.15c2.84-.68,4.27.41,5.13,2.1.74,1.45.72,9.85-.71,16.17,1.24.51,3.42.83,4.52-1.69a32.48,32.48,0,0,0,2.54-14.38A5.26,5.26,0,0,0,243.41,460.22Z"/><path class="cls-44" d="M231.24,458a5.71,5.71,0,0,1-1.32,3.5,7,7,0,0,1,1,.24,5.28,5.28,0,0,0,2.86.15,7.64,7.64,0,0,1,1-.17,19.62,19.62,0,0,1-1-2.81,7.61,7.61,0,0,1-.19-.94,4.56,4.56,0,0,1,1.57-4.23c-1.08-2.95-3.51-1.72-3.51-1.72a12.36,12.36,0,0,0-.37,4.75A9.52,9.52,0,0,1,231.24,458Z"/><path class="cls-22" d="M235,453.41l0-.09-.09-.18,0-.09-.09-.15,0-.08-.11-.15,0,0-.15-.18,0,0-.12-.12-.05,0-.11-.09-.06,0-.11-.07,0,0a2.08,2.08,0,0,0-.33-.15h0l-.13,0h0l-.13,0h0l-.16,0h0a2.51,2.51,0,0,0-.48,0h0c1.6.48.64,1.88.22,4.42a11.71,11.71,0,0,0-.14,2.15,4.28,4.28,0,0,1-1.51,3.45,5.24,5.24,0,0,0,2.68.09,7.64,7.64,0,0,1,1-.17l0-.09-.06-.15,0-.11-.08-.19-.05-.13-.08-.21-.06-.15-.09-.24-.06-.16-.09-.27-.06-.17-.1-.31,0-.15-.14-.49a7.61,7.61,0,0,1-.19-.94,4.77,4.77,0,0,1,.17-2.17l.1-.27a4.45,4.45,0,0,1,.42-.79l.18-.26a5.87,5.87,0,0,1,.7-.76Z"/></g></svg>